<svg width="1440" height="1165" viewBox="0 0 1440 1165" fill="none" xmlns="http://www.w3.org/2000/svg">
<g clip-path="url(#clip0_712_1328)">
<rect width="1440" height="1165" fill="white"/>
<path d="M450.2 661.08C449.294 662.627 448.147 664.067 446.76 665.4C445.374 666.733 443.72 667.88 441.8 668.84C439.934 669.8 437.854 670.547 435.56 671.08C433.267 671.667 430.814 671.96 428.2 671.96C424.414 671.96 420.814 671.267 417.4 669.88C414.04 668.44 411.08 666.413 408.52 663.8C405.96 661.187 403.934 658.067 402.44 654.44C400.947 650.813 400.2 646.76 400.2 642.28C400.2 637.8 400.947 633.747 402.44 630.12C403.934 626.44 405.96 623.32 408.52 620.76C411.08 618.147 414.04 616.147 417.4 614.76C420.814 613.32 424.44 612.6 428.28 612.6C430.894 612.6 433.32 612.893 435.56 613.48C437.854 614.067 439.907 614.867 441.72 615.88C443.534 616.84 445.107 617.987 446.44 619.32C447.827 620.6 448.894 621.933 449.64 623.32L447.32 630.04C445.56 627.427 443.054 625.24 439.8 623.48C436.547 621.667 432.84 620.76 428.68 620.76C425.587 620.76 422.76 621.267 420.2 622.28C417.64 623.24 415.427 624.653 413.56 626.52C411.747 628.333 410.334 630.573 409.32 633.24C408.307 635.907 407.8 638.92 407.8 642.28C407.8 645.64 408.307 648.653 409.32 651.32C410.334 653.933 411.747 656.173 413.56 658.04C415.427 659.907 417.64 661.347 420.2 662.36C422.76 663.32 425.587 663.8 428.68 663.8C433.267 663.8 437.16 662.893 440.36 661.08C443.614 659.213 446.147 656.973 447.96 654.36L450.2 661.08ZM474.696 614.92C478.163 613.373 481.816 612.6 485.656 612.6C489.496 612.6 493.149 613.347 496.616 614.84C500.083 616.333 503.123 618.413 505.736 621.08C508.349 623.747 510.429 626.893 511.976 630.52C513.523 634.147 514.296 638.067 514.296 642.28C514.296 646.547 513.523 650.493 511.976 654.12C510.429 657.693 508.349 660.813 505.736 663.48C503.123 666.147 500.083 668.227 496.616 669.72C493.203 671.213 489.603 671.96 485.816 671.96C481.923 671.96 478.216 671.213 474.696 669.72C471.229 668.173 468.189 666.093 465.576 663.48C462.963 660.813 460.883 657.693 459.336 654.12C457.789 650.493 457.016 646.573 457.016 642.36C457.016 638.147 457.789 634.227 459.336 630.6C460.883 626.92 462.963 623.773 465.576 621.16C468.189 618.493 471.229 616.413 474.696 614.92ZM485.736 620.76C482.749 620.76 479.976 621.293 477.416 622.36C474.856 623.427 472.616 624.92 470.696 626.84C468.829 628.76 467.336 631.053 466.216 633.72C465.149 636.333 464.616 639.213 464.616 642.36C464.616 645.507 465.149 648.413 466.216 651.08C467.336 653.693 468.829 655.96 470.696 657.88C472.616 659.747 474.856 661.213 477.416 662.28C479.976 663.293 482.749 663.8 485.736 663.8C488.669 663.8 491.416 663.293 493.976 662.28C496.536 661.213 498.749 659.747 500.616 657.88C502.483 655.96 503.949 653.693 505.016 651.08C506.136 648.413 506.696 645.48 506.696 642.28C506.696 639.133 506.136 636.253 505.016 633.64C503.949 630.973 502.483 628.707 500.616 626.84C498.749 624.92 496.536 623.427 493.976 622.36C491.416 621.293 488.669 620.76 485.736 620.76ZM539.968 613.56C542.581 613.56 544.955 613.907 547.088 614.6C549.275 615.293 551.141 616.307 552.688 617.64C554.235 618.92 555.435 620.547 556.288 622.52C557.141 624.493 557.568 626.76 557.568 629.32C557.568 631.88 557.115 634.067 556.208 635.88C555.301 637.64 554.075 639.133 552.528 640.36C554.875 641.48 556.795 643.187 558.288 645.48C559.781 647.773 560.528 650.68 560.528 654.2C560.528 656.92 560.075 659.32 559.168 661.4C558.315 663.48 557.088 665.24 555.488 666.68C553.941 668.067 552.075 669.133 549.888 669.88C547.755 670.627 545.408 671 542.848 671H525.488V613.56H539.968ZM533.008 645.72V662.92H544.368C545.541 662.92 546.661 662.707 547.728 662.28C548.795 661.853 549.701 661.267 550.448 660.52C551.195 659.773 551.781 658.867 552.208 657.8C552.688 656.733 552.928 655.587 552.928 654.36C552.928 653.24 552.715 652.173 552.288 651.16C551.861 650.093 551.275 649.16 550.528 648.36C549.781 647.56 548.875 646.92 547.808 646.44C546.741 645.96 545.568 645.72 544.288 645.72H533.008ZM533.008 621.64V637.64H541.808C544.208 637.64 546.181 636.947 547.728 635.56C549.275 634.12 550.048 632.173 550.048 629.72C550.048 627.373 549.301 625.453 547.808 623.96C546.315 622.413 544.315 621.64 541.808 621.64H533.008ZM588.538 613.56C591.098 613.56 593.471 613.987 595.658 614.84C597.898 615.64 599.818 616.813 601.418 618.36C603.018 619.907 604.271 621.773 605.178 623.96C606.138 626.093 606.618 628.467 606.618 631.08C606.618 633.64 606.165 635.987 605.258 638.12C604.405 640.253 603.178 642.093 601.578 643.64C599.978 645.133 598.058 646.307 595.818 647.16C593.631 648.013 591.231 648.44 588.618 648.44H580.058V671L572.538 671V613.56H588.538ZM580.058 621.64V640.36H589.818C592.431 640.36 594.618 639.507 596.378 637.8C598.138 636.04 599.018 633.773 599.018 631C599.018 629.72 598.778 628.52 598.298 627.4C597.871 626.227 597.231 625.213 596.378 624.36C595.578 623.507 594.618 622.84 593.498 622.36C592.378 621.88 591.151 621.64 589.818 621.64H580.058ZM617.01 613.56H647.65V621.64H624.53V637.4H645.25V645.48H624.53V662.92H647.65V671H617.01V613.56ZM708.466 613.56H716.546L724.226 671H716.786L710.786 627.16L694.946 671H687.586L671.426 627.16L665.826 671H658.066L665.666 613.56H673.746L691.026 660.04L708.466 613.56ZM737.438 613.56H768.078V621.64H744.958V637.4H765.678V645.48H744.958V662.92H768.078V671H737.438V613.56ZM780.894 613.56H788.414V637.4H819.534V613.56H827.054V671H819.534V645.48H788.414V671H780.894V613.56ZM842.241 613.56H849.761V637.4H880.881V613.56H888.401V671H880.881V645.48L849.761 645.48V671H842.241V613.56ZM917.268 614.92C920.734 613.373 924.388 612.6 928.228 612.6C932.068 612.6 935.721 613.347 939.188 614.84C942.654 616.333 945.694 618.413 948.308 621.08C950.921 623.747 953.001 626.893 954.548 630.52C956.094 634.147 956.868 638.067 956.868 642.28C956.868 646.547 956.094 650.493 954.548 654.12C953.001 657.693 950.921 660.813 948.308 663.48C945.694 666.147 942.654 668.227 939.188 669.72C935.774 671.213 932.174 671.96 928.388 671.96C924.494 671.96 920.788 671.213 917.268 669.72C913.801 668.173 910.761 666.093 908.148 663.48C905.534 660.813 903.454 657.693 901.908 654.12C900.361 650.493 899.588 646.573 899.588 642.36C899.588 638.147 900.361 634.227 901.908 630.6C903.454 626.92 905.534 623.773 908.148 621.16C910.761 618.493 913.801 616.413 917.268 614.92ZM928.308 620.76C925.321 620.76 922.548 621.293 919.988 622.36C917.428 623.427 915.188 624.92 913.268 626.84C911.401 628.76 909.908 631.053 908.788 633.72C907.721 636.333 907.188 639.213 907.188 642.36C907.188 645.507 907.721 648.413 908.788 651.08C909.908 653.693 911.401 655.96 913.268 657.88C915.188 659.747 917.428 661.213 919.988 662.28C922.548 663.293 925.321 663.8 928.308 663.8C931.241 663.8 933.988 663.293 936.548 662.28C939.108 661.213 941.321 659.747 943.188 657.88C945.054 655.96 946.521 653.693 947.588 651.08C948.708 648.413 949.268 645.48 949.268 642.28C949.268 639.133 948.708 636.253 947.588 633.64C946.521 630.973 945.054 628.707 943.188 626.84C941.321 624.92 939.108 623.427 936.548 622.36C933.988 621.293 931.241 620.76 928.308 620.76ZM968.06 613.56H995.9V621.64H975.58V671H968.06V613.56ZM1019.02 614.92C1022.49 613.373 1026.14 612.6 1029.98 612.6C1033.82 612.6 1037.48 613.347 1040.94 614.84C1044.41 616.333 1047.45 618.413 1050.06 621.08C1052.68 623.747 1054.76 626.893 1056.3 630.52C1057.85 634.147 1058.62 638.067 1058.62 642.28C1058.62 646.547 1057.85 650.493 1056.3 654.12C1054.76 657.693 1052.68 660.813 1050.06 663.48C1047.45 666.147 1044.41 668.227 1040.94 669.72C1037.53 671.213 1033.93 671.96 1030.14 671.96C1026.25 671.96 1022.54 671.213 1019.02 669.72C1015.56 668.173 1012.52 666.093 1009.9 663.48C1007.29 660.813 1005.21 657.693 1003.66 654.12C1002.12 650.493 1001.34 646.573 1001.34 642.36C1001.34 638.147 1002.12 634.227 1003.66 630.6C1005.21 626.92 1007.29 623.773 1009.9 621.16C1012.52 618.493 1015.56 616.413 1019.02 614.92ZM1030.06 620.76C1027.08 620.76 1024.3 621.293 1021.74 622.36C1019.18 623.427 1016.94 624.92 1015.02 626.84C1013.16 628.76 1011.66 631.053 1010.54 633.72C1009.48 636.333 1008.94 639.213 1008.94 642.36C1008.94 645.507 1009.48 648.413 1010.54 651.08C1011.66 653.693 1013.16 655.96 1015.02 657.88C1016.94 659.747 1019.18 661.213 1021.74 662.28C1024.3 663.293 1027.08 663.8 1030.06 663.8C1033 663.8 1035.74 663.293 1038.3 662.28C1040.86 661.213 1043.08 659.747 1044.94 657.88C1046.81 655.96 1048.28 653.693 1049.34 651.08C1050.46 648.413 1051.02 645.48 1051.02 642.28C1051.02 639.133 1050.46 636.253 1049.34 633.64C1048.28 630.973 1046.81 628.707 1044.94 626.84C1043.08 624.92 1040.86 623.427 1038.3 622.36C1035.74 621.293 1033 620.76 1030.06 620.76Z" fill="white"/>
<path d="M450.2 661.08L451.926 662.091L452.385 661.308L452.098 660.448L450.2 661.08ZM446.76 665.4L448.147 666.842L448.147 666.842L446.76 665.4ZM441.8 668.84L440.906 667.051L440.896 667.056L440.886 667.061L441.8 668.84ZM435.56 671.08L435.107 669.132L435.086 669.137L435.065 669.142L435.56 671.08ZM417.4 669.88L416.613 671.718L416.63 671.726L416.648 671.733L417.4 669.88ZM408.52 663.8L409.949 662.4L409.949 662.4L408.52 663.8ZM402.44 654.44L404.29 653.678L404.29 653.678L402.44 654.44ZM402.44 630.12L404.29 630.881L404.294 630.872L402.44 630.12ZM408.52 620.76L409.935 622.174L409.942 622.167L409.949 622.16L408.52 620.76ZM417.4 614.76L418.163 616.609L418.171 616.606L418.178 616.603L417.4 614.76ZM435.56 613.48L435.054 615.415L435.065 615.418L435.56 613.48ZM441.72 615.88L440.745 617.626L440.765 617.637L440.785 617.648L441.72 615.88ZM446.44 619.32L445.026 620.734L445.055 620.762L445.084 620.79L446.44 619.32ZM449.64 623.32L451.531 623.973L451.817 623.144L451.401 622.372L449.64 623.32ZM447.32 630.04L445.662 631.157L447.902 634.484L449.211 630.693L447.32 630.04ZM439.8 623.48L438.827 625.227L438.838 625.233L438.849 625.239L439.8 623.48ZM420.2 622.28L420.903 624.153L420.92 624.146L420.937 624.14L420.2 622.28ZM413.56 626.52L412.146 625.106L412.146 625.106L413.56 626.52ZM409.32 633.24L411.19 633.95L411.19 633.95L409.32 633.24ZM409.32 651.32L407.451 652.03L407.456 652.043L409.32 651.32ZM413.56 658.04L412.126 659.434L412.136 659.444L412.146 659.454L413.56 658.04ZM420.2 662.36L419.464 664.22L419.481 664.226L419.498 664.233L420.2 662.36ZM440.36 661.08L441.347 662.82L441.356 662.815L440.36 661.08ZM447.96 654.36L449.858 653.728L448.595 649.938L446.317 653.22L447.96 654.36ZM448.475 660.069C447.668 661.446 446.638 662.743 445.374 663.958L448.147 666.842C449.656 665.39 450.92 663.807 451.926 662.091L448.475 660.069ZM445.374 663.958C444.149 665.137 442.666 666.171 440.906 667.051L442.695 670.629C444.775 669.589 446.599 668.33 448.147 666.842L445.374 663.958ZM440.886 667.061C439.182 667.938 437.26 668.631 435.107 669.132L436.014 673.028C438.448 672.462 440.686 671.662 442.715 670.619L440.886 667.061ZM435.065 669.142C432.949 669.684 430.664 669.96 428.2 669.96V673.96C430.964 673.96 433.585 673.65 436.056 673.018L435.065 669.142ZM428.2 669.96C424.665 669.96 421.321 669.314 418.153 668.027L416.648 671.733C420.307 673.219 424.163 673.96 428.2 673.96V669.96ZM418.188 668.042C415.069 666.705 412.326 664.827 409.949 662.4L407.092 665.2C409.835 667.999 413.012 670.175 416.613 671.718L418.188 668.042ZM409.949 662.4C407.582 659.984 405.692 657.085 404.29 653.678L400.591 655.201C402.175 659.049 404.339 662.39 407.092 665.2L409.949 662.4ZM404.29 653.678C402.909 650.325 402.2 646.536 402.2 642.28H398.2C398.2 646.984 398.985 651.301 400.591 655.201L404.29 653.678ZM402.2 642.28C402.2 638.024 402.909 634.235 404.29 630.881L400.591 629.358C398.985 633.259 398.2 637.576 398.2 642.28H402.2ZM404.294 630.872C405.696 627.416 407.581 624.527 409.935 622.174L407.106 619.346C404.34 622.113 402.171 625.464 400.587 629.368L404.294 630.872ZM409.949 622.16C412.321 619.738 415.055 617.892 418.163 616.609L416.638 612.911C413.026 614.402 409.84 616.555 407.092 619.36L409.949 622.16ZM418.178 616.603C421.336 615.27 424.698 614.6 428.28 614.6V610.6C424.183 610.6 420.291 611.37 416.623 612.917L418.178 616.603ZM428.28 614.6C430.744 614.6 432.999 614.877 435.054 615.415L436.067 611.545C433.642 610.91 431.043 610.6 428.28 610.6V614.6ZM435.065 615.418C437.213 615.967 439.102 616.708 440.745 617.626L442.696 614.134C440.712 613.026 438.494 612.166 436.056 611.542L435.065 615.418ZM440.785 617.648C442.437 618.522 443.846 619.554 445.026 620.734L447.855 617.906C446.369 616.42 444.63 615.158 442.656 614.112L440.785 617.648ZM445.084 620.79C446.339 621.948 447.256 623.111 447.88 624.268L451.401 622.372C450.531 620.756 449.315 619.252 447.797 617.85L445.084 620.79ZM447.75 622.667L445.43 629.387L449.211 630.693L451.531 623.973L447.75 622.667ZM448.979 628.923C447.01 625.998 444.24 623.608 440.752 621.721L438.849 625.239C441.867 626.872 444.111 628.855 445.662 631.157L448.979 628.923ZM440.774 621.733C437.19 619.735 433.141 618.76 428.68 618.76V622.76C432.54 622.76 435.905 623.598 438.827 625.227L440.774 621.733ZM428.68 618.76C425.366 618.76 422.286 619.304 419.464 620.42L420.937 624.14C423.235 623.23 425.808 622.76 428.68 622.76V618.76ZM419.498 620.407C416.681 621.464 414.222 623.03 412.146 625.106L414.975 627.934C416.632 626.277 418.6 625.016 420.903 624.153L419.498 620.407ZM412.146 625.106C410.112 627.14 408.553 629.629 407.451 632.53L411.19 633.95C412.114 631.518 413.383 629.526 414.975 627.934L412.146 625.106ZM407.451 632.53C406.338 635.46 405.8 638.72 405.8 642.28H409.8C409.8 639.12 410.277 636.354 411.19 633.95L407.451 632.53ZM405.8 642.28C405.8 645.84 406.338 649.1 407.451 652.03L411.19 650.61C410.277 648.206 409.8 645.44 409.8 642.28H405.8ZM407.456 652.043C408.559 654.887 410.112 657.36 412.126 659.434L414.995 656.646C413.383 654.987 412.109 652.98 411.185 650.597L407.456 652.043ZM412.146 659.454C414.214 661.522 416.661 663.11 419.464 664.22L420.937 660.5C418.62 659.583 416.64 658.291 414.975 656.626L412.146 659.454ZM419.498 664.233C422.31 665.287 425.379 665.8 428.68 665.8V661.8C425.796 661.8 423.211 661.353 420.903 660.487L419.498 664.233ZM428.68 665.8C433.528 665.8 437.78 664.841 441.346 662.82L439.374 659.34C436.541 660.946 433.006 661.8 428.68 661.8V665.8ZM441.356 662.815C444.821 660.827 447.593 658.397 449.604 655.5L446.317 653.22C444.701 655.549 442.407 657.6 439.365 659.345L441.356 662.815ZM446.063 654.992L448.303 661.712L452.098 660.448L449.858 653.728L446.063 654.992ZM474.696 614.92L475.487 616.757L475.499 616.752L475.511 616.746L474.696 614.92ZM505.736 621.08L507.164 619.68L507.164 619.68L505.736 621.08ZM511.976 630.52L513.816 629.735L513.816 629.735L511.976 630.52ZM511.976 654.12L513.812 654.914L513.816 654.905L511.976 654.12ZM505.736 663.48L507.164 664.88L507.164 664.88L505.736 663.48ZM496.616 669.72L495.825 667.883L495.814 667.888L496.616 669.72ZM474.696 669.72L473.881 671.546L473.898 671.554L473.915 671.561L474.696 669.72ZM465.576 663.48L464.148 664.88L464.155 664.887L464.162 664.894L465.576 663.48ZM459.336 654.12L457.496 654.905L457.501 654.914L459.336 654.12ZM459.336 630.6L461.176 631.385L461.18 631.375L459.336 630.6ZM465.576 621.16L466.99 622.574L466.997 622.567L467.005 622.56L465.576 621.16ZM477.416 622.36L476.647 620.514L476.647 620.514L477.416 622.36ZM470.696 626.84L469.282 625.426L469.272 625.436L469.262 625.446L470.696 626.84ZM466.216 633.72L464.372 632.946L464.368 632.955L464.364 632.964L466.216 633.72ZM466.216 651.08L464.359 651.823L464.368 651.845L464.378 651.868L466.216 651.08ZM470.696 657.88L469.262 659.274L469.282 659.294L469.302 659.314L470.696 657.88ZM477.416 662.28L476.647 664.126L476.663 664.133L476.68 664.14L477.416 662.28ZM493.976 662.28L494.712 664.14L494.729 664.133L494.745 664.126L493.976 662.28ZM500.616 657.88L502.03 659.294L502.04 659.284L502.05 659.274L500.616 657.88ZM505.016 651.08L503.172 650.306L503.168 650.315L503.164 650.324L505.016 651.08ZM505.016 633.64L503.159 634.383L503.168 634.405L503.178 634.428L505.016 633.64ZM500.616 626.84L499.182 628.234L499.192 628.244L499.202 628.254L500.616 626.84ZM493.976 622.36L494.745 620.514L494.745 620.514L493.976 622.36ZM475.511 616.746C478.718 615.316 482.094 614.6 485.656 614.6V610.6C481.539 610.6 477.607 611.431 473.881 613.094L475.511 616.746ZM485.656 614.6C489.229 614.6 492.612 615.293 495.825 616.677L497.407 613.003C493.686 611.4 489.763 610.6 485.656 610.6V614.6ZM495.825 616.677C499.055 618.068 501.878 620.001 504.308 622.48L507.164 619.68C504.367 616.826 501.11 614.598 497.407 613.003L495.825 616.677ZM504.308 622.48C506.737 624.959 508.682 627.894 510.136 631.305L513.816 629.735C512.177 625.893 509.962 622.534 507.164 619.68L504.308 622.48ZM510.136 631.305C511.57 634.666 512.296 638.318 512.296 642.28H516.296C516.296 637.816 515.475 633.627 513.816 629.735L510.136 631.305ZM512.296 642.28C512.296 646.299 511.569 649.977 510.136 653.335L513.816 654.905C515.477 651.01 516.296 646.794 516.296 642.28H512.296ZM510.141 653.326C508.687 656.684 506.742 659.596 504.308 662.08L507.164 664.88C509.957 662.031 512.172 658.703 513.812 654.914L510.141 653.326ZM504.308 662.08C501.878 664.559 499.055 666.492 495.825 667.883L497.407 671.557C501.11 669.962 504.367 667.734 507.164 664.88L504.308 662.08ZM495.814 667.888C492.658 669.269 489.331 669.96 485.816 669.96V673.96C489.874 673.96 493.747 673.158 497.418 671.552L495.814 667.888ZM485.816 669.96C482.186 669.96 478.746 669.265 475.477 667.879L473.915 671.561C477.687 673.161 481.659 673.96 485.816 673.96V669.96ZM475.511 667.894C472.261 666.444 469.426 664.501 466.99 662.066L464.162 664.894C466.953 667.685 470.197 669.903 473.881 671.546L475.511 667.894ZM467.005 662.08C464.57 659.596 462.625 656.684 461.172 653.326L457.501 654.914C459.14 658.703 461.355 662.031 464.148 664.88L467.005 662.08ZM461.176 653.335C459.742 649.973 459.016 646.322 459.016 642.36H455.016C455.016 646.824 455.837 651.013 457.496 654.905L461.176 653.335ZM459.016 642.36C459.016 638.398 459.742 634.746 461.176 631.385L457.496 629.815C455.837 633.707 455.016 637.896 455.016 642.36H459.016ZM461.18 631.375C462.634 627.915 464.574 624.99 466.99 622.574L464.162 619.746C461.351 622.557 459.131 625.925 457.492 629.825L461.18 631.375ZM467.005 622.56C469.434 620.081 472.257 618.148 475.487 616.757L473.905 613.083C470.202 614.678 466.945 616.906 464.148 619.76L467.005 622.56ZM485.736 618.76C482.506 618.76 479.469 619.338 476.647 620.514L478.185 624.206C480.483 623.249 482.993 622.76 485.736 622.76V618.76ZM476.647 620.514C473.851 621.679 471.391 623.317 469.282 625.426L472.11 628.254C473.842 626.523 475.861 625.175 478.185 624.206L476.647 620.514ZM469.262 625.446C467.208 627.559 465.581 630.067 464.372 632.946L468.06 634.494C469.091 632.04 470.451 629.961 472.13 628.234L469.262 625.446ZM464.364 632.964C463.189 635.844 462.616 638.984 462.616 642.36H466.616C466.616 639.443 467.11 636.823 468.068 634.476L464.364 632.964ZM462.616 642.36C462.616 645.737 463.189 648.898 464.359 651.823L468.073 650.337C467.11 647.928 466.616 645.277 466.616 642.36H462.616ZM464.378 651.868C465.588 654.692 467.214 657.168 469.262 659.274L472.13 656.486C470.445 654.752 469.084 652.694 468.054 650.292L464.378 651.868ZM469.302 659.314C471.409 661.362 473.863 662.966 476.647 664.126L478.185 660.434C475.849 659.46 473.823 658.131 472.09 656.446L469.302 659.314ZM476.68 664.14C479.493 665.253 482.519 665.8 485.736 665.8V661.8C482.98 661.8 480.459 661.333 478.152 660.42L476.68 664.14ZM485.736 665.8C488.905 665.8 491.903 665.252 494.712 664.14L493.24 660.42C490.929 661.335 488.434 661.8 485.736 661.8V665.8ZM494.745 664.126C497.534 662.964 499.97 661.355 502.03 659.294L499.202 656.466C497.529 658.138 495.538 659.462 493.207 660.434L494.745 664.126ZM502.05 659.274C504.105 657.16 505.709 654.674 506.868 651.836L503.164 650.324C502.189 652.713 500.86 654.76 499.182 656.486L502.05 659.274ZM506.86 651.854C508.093 648.918 508.696 645.718 508.696 642.28H504.696C504.696 645.242 504.179 647.909 503.172 650.306L506.86 651.854ZM508.696 642.28C508.696 638.891 508.092 635.74 506.854 632.852L503.178 634.428C504.18 636.767 504.696 639.375 504.696 642.28H508.696ZM506.873 632.897C505.715 630.001 504.105 627.5 502.03 625.426L499.202 628.254C500.861 629.913 502.184 631.945 503.159 634.383L506.873 632.897ZM502.05 625.446C499.988 623.325 497.546 621.681 494.745 620.514L493.207 624.206C495.526 625.172 497.511 626.515 499.182 628.234L502.05 625.446ZM494.745 620.514C491.928 619.34 488.918 618.76 485.736 618.76V622.76C488.421 622.76 490.904 623.247 493.207 624.206L494.745 620.514ZM547.088 614.6L546.47 616.502L546.477 616.504L546.483 616.506L547.088 614.6ZM552.688 617.64L551.382 619.155L551.397 619.168L551.413 619.181L552.688 617.64ZM556.208 635.88L557.986 636.796L557.991 636.785L557.997 636.774L556.208 635.88ZM552.528 640.36L551.285 638.793L548.774 640.784L551.666 642.165L552.528 640.36ZM558.288 645.48L556.612 646.571L556.612 646.571L558.288 645.48ZM559.168 661.4L557.335 660.601L557.326 660.621L557.318 660.641L559.168 661.4ZM555.488 666.68L556.823 668.169L556.826 668.167L555.488 666.68ZM549.888 669.88L549.242 667.987L549.234 667.99L549.227 667.992L549.888 669.88ZM525.488 671H523.488V673H525.488V671ZM525.488 613.56V611.56H523.488V613.56H525.488ZM533.008 645.72V643.72H531.008V645.72H533.008ZM533.008 662.92H531.008V664.92H533.008V662.92ZM547.728 662.28L548.471 664.137L548.471 664.137L547.728 662.28ZM550.448 660.52L549.034 659.106L549.034 659.106L550.448 660.52ZM552.208 657.8L550.384 656.979L550.367 657.018L550.351 657.057L552.208 657.8ZM552.288 651.16L550.431 651.903L550.438 651.919L550.445 651.936L552.288 651.16ZM550.528 648.36L551.99 646.995L551.99 646.995L550.528 648.36ZM533.008 621.64V619.64H531.008V621.64H533.008ZM533.008 637.64H531.008V639.64H533.008V637.64ZM547.728 635.56L549.063 637.049L549.077 637.037L549.091 637.024L547.728 635.56ZM547.808 623.96L546.369 625.349L546.381 625.362L546.394 625.374L547.808 623.96ZM539.968 615.56C542.405 615.56 544.566 615.883 546.47 616.502L547.706 612.698C545.343 611.93 542.757 611.56 539.968 611.56V615.56ZM546.483 616.506C548.444 617.128 550.064 618.019 551.382 619.155L553.994 616.125C552.218 614.595 550.105 613.459 547.692 612.694L546.483 616.506ZM551.413 619.181C552.699 620.245 553.715 621.609 554.452 623.314L558.124 621.726C557.154 619.484 555.77 617.595 553.963 616.099L551.413 619.181ZM554.452 623.314C555.179 624.993 555.568 626.982 555.568 629.32H559.568C559.568 626.538 559.104 623.993 558.124 621.726L554.452 623.314ZM555.568 629.32C555.568 631.649 555.155 633.513 554.419 634.986L557.997 636.774C559.074 634.62 559.568 632.111 559.568 629.32H555.568ZM554.43 634.964C553.653 636.472 552.609 637.743 551.285 638.793L553.771 641.927C555.541 640.523 556.949 638.808 557.986 636.796L554.43 634.964ZM551.666 642.165C553.663 643.118 555.308 644.569 556.612 646.571L559.964 644.389C558.281 641.804 556.086 639.842 553.389 638.555L551.666 642.165ZM556.612 646.571C557.841 648.459 558.528 650.958 558.528 654.2H562.528C562.528 650.402 561.722 647.088 559.964 644.389L556.612 646.571ZM558.528 654.2C558.528 656.699 558.112 658.818 557.335 660.601L561.001 662.199C562.037 659.822 562.528 657.141 562.528 654.2H558.528ZM557.318 660.641C556.573 662.456 555.517 663.963 554.15 665.193L556.826 668.167C558.659 666.517 560.056 664.504 561.018 662.159L557.318 660.641ZM554.153 665.191C552.828 666.379 551.203 667.318 549.242 667.987L550.534 671.773C552.947 670.949 555.055 669.754 556.823 668.169L554.153 665.191ZM549.227 667.992C547.332 668.655 545.212 669 542.848 669V673C545.603 673 548.177 672.598 550.549 671.768L549.227 667.992ZM542.848 669H525.488V673H542.848V669ZM527.488 671V613.56H523.488V671H527.488ZM525.488 615.56H539.968V611.56H525.488V615.56ZM531.008 645.72V662.92H535.008V645.72H531.008ZM533.008 664.92H544.368V660.92H533.008V664.92ZM544.368 664.92C545.79 664.92 547.163 664.66 548.471 664.137L546.985 660.423C546.16 660.753 545.292 660.92 544.368 660.92V664.92ZM548.471 664.137C549.767 663.619 550.908 662.889 551.862 661.934L549.034 659.106C548.495 659.645 547.823 660.088 546.985 660.423L548.471 664.137ZM551.862 661.934C552.817 660.98 553.547 659.839 554.065 658.543L550.351 657.057C550.016 657.895 549.573 658.567 549.034 659.106L551.862 661.934ZM554.032 658.621C554.634 657.283 554.928 655.856 554.928 654.36H550.928C550.928 655.318 550.742 656.183 550.384 656.979L554.032 658.621ZM554.928 654.36C554.928 652.979 554.663 651.648 554.131 650.384L550.445 651.936C550.766 652.699 550.928 653.501 550.928 654.36H554.928ZM554.145 650.417C553.631 649.132 552.914 647.985 551.99 646.995L549.066 649.725C549.635 650.335 550.092 651.054 550.431 651.903L554.145 650.417ZM551.99 646.995C551.05 645.988 549.921 645.198 548.629 644.616L546.987 648.264C547.829 648.642 548.513 649.132 549.066 649.725L551.99 646.995ZM548.629 644.616C547.28 644.009 545.824 643.72 544.288 643.72V647.72C545.312 647.72 546.202 647.911 546.987 648.264L548.629 644.616ZM544.288 643.72H533.008V647.72H544.288V643.72ZM531.008 621.64V637.64H535.008V621.64H531.008ZM533.008 639.64H541.808V635.64H533.008V639.64ZM541.808 639.64C544.619 639.64 547.093 638.815 549.063 637.049L546.393 634.071C545.27 635.078 543.797 635.64 541.808 635.64V639.64ZM549.091 637.024C551.11 635.144 552.048 632.631 552.048 629.72H548.048C548.048 631.716 547.439 633.096 546.365 634.096L549.091 637.024ZM552.048 629.72C552.048 626.907 551.134 624.458 549.222 622.546L546.394 625.374C547.469 626.449 548.048 627.839 548.048 629.72H552.048ZM549.247 622.571C547.314 620.569 544.759 619.64 541.808 619.64V623.64C543.87 623.64 545.316 624.258 546.369 625.349L549.247 622.571ZM541.808 619.64H533.008V623.64H541.808V619.64ZM595.658 614.84L594.931 616.703L594.958 616.714L594.985 616.723L595.658 614.84ZM601.418 618.36L602.808 616.922L602.808 616.922L601.418 618.36ZM605.178 623.96L603.33 624.726L603.342 624.754L603.354 624.781L605.178 623.96ZM605.258 638.12L603.417 637.338L603.409 637.357L603.401 637.377L605.258 638.12ZM601.578 643.64L602.943 645.102L602.955 645.09L602.968 645.078L601.578 643.64ZM595.818 647.16L595.106 645.291L595.098 645.294L595.091 645.297L595.818 647.16ZM580.058 648.44V646.44H578.058V648.44H580.058ZM580.058 671V673H582.058V671H580.058ZM572.538 671H570.538V673H572.538V671ZM572.538 613.56V611.56H570.538V613.56H572.538ZM580.058 621.64V619.64H578.058V621.64H580.058ZM580.058 640.36H578.058V642.36H580.058V640.36ZM596.378 637.8L597.77 639.236L597.781 639.225L597.792 639.214L596.378 637.8ZM598.298 627.4L596.418 628.083L596.437 628.136L596.46 628.188L598.298 627.4ZM596.378 624.36L594.919 625.728L594.941 625.751L594.964 625.774L596.378 624.36ZM588.538 615.56C590.872 615.56 592.996 615.948 594.931 616.703L596.385 612.977C593.946 612.025 591.324 611.56 588.538 611.56V615.56ZM594.985 616.723C596.976 617.434 598.646 618.463 600.028 619.798L602.808 616.922C600.989 615.164 598.82 613.846 596.331 612.957L594.985 616.723ZM600.028 619.798C601.419 621.142 602.522 622.776 603.33 624.726L607.025 623.194C606.021 620.771 604.617 618.671 602.808 616.922L600.028 619.798ZM603.354 624.781C604.185 626.627 604.618 628.716 604.618 631.08H608.618C608.618 628.217 608.091 625.559 607.002 623.139L603.354 624.781ZM604.618 631.08C604.618 633.399 604.208 635.476 603.417 637.338L607.099 638.902C608.121 636.497 608.618 633.881 608.618 631.08H604.618ZM603.401 637.377C602.649 639.257 601.578 640.858 600.188 642.202L602.968 645.078C604.778 643.329 606.16 641.249 607.115 638.863L603.401 637.377ZM600.213 642.178C598.82 643.479 597.127 644.521 595.106 645.291L596.53 649.029C598.989 648.092 601.136 646.788 602.943 645.102L600.213 642.178ZM595.091 645.297C593.161 646.05 591.011 646.44 588.618 646.44V650.44C591.452 650.44 594.102 649.977 596.545 649.023L595.091 645.297ZM588.618 646.44H580.058V650.44H588.618V646.44ZM578.058 648.44V671L582.058 671V648.44H578.058ZM580.058 669L572.538 669V673L580.058 673V669ZM574.538 671V613.56H570.538V671H574.538ZM572.538 615.56H588.538V611.56H572.538V615.56ZM578.058 621.64V640.36H582.058V621.64H578.058ZM580.058 642.36H589.818V638.36H580.058V642.36ZM589.818 642.36C592.913 642.36 595.611 641.33 597.77 639.236L594.986 636.364C593.625 637.684 591.949 638.36 589.818 638.36V642.36ZM597.792 639.214C599.972 637.035 601.018 634.237 601.018 631H597.018C597.018 633.309 596.304 635.045 594.964 636.386L597.792 639.214ZM601.018 631C601.018 629.463 600.728 627.994 600.136 626.612L596.46 628.188C596.828 629.046 597.018 629.977 597.018 631H601.018ZM600.177 626.716C599.654 625.278 598.859 624.013 597.792 622.946L594.964 625.774C595.603 626.414 596.088 627.175 596.418 628.083L600.177 626.716ZM597.837 622.992C596.84 621.929 595.649 621.106 594.286 620.522L592.71 624.198C593.587 624.574 594.316 625.084 594.919 625.728L597.837 622.992ZM594.286 620.522C592.894 619.925 591.396 619.64 589.818 619.64V623.64C590.906 623.64 591.862 623.835 592.71 624.198L594.286 620.522ZM589.818 619.64H580.058V623.64H589.818V619.64ZM617.01 613.56V611.56H615.01V613.56H617.01ZM647.65 613.56H649.65V611.56H647.65V613.56ZM647.65 621.64V623.64H649.65V621.64H647.65ZM624.53 621.64V619.64H622.53V621.64H624.53ZM624.53 637.4H622.53V639.4H624.53V637.4ZM645.25 637.4H647.25L647.25 635.4H645.25L645.25 637.4ZM645.25 645.48V647.48H647.25V645.48H645.25ZM624.53 645.48V643.48H622.53V645.48H624.53ZM624.53 662.92H622.53V664.92H624.53V662.92ZM647.65 662.92H649.65V660.92H647.65V662.92ZM647.65 671V673H649.65V671H647.65ZM617.01 671H615.01V673H617.01V671ZM617.01 615.56H647.65V611.56H617.01V615.56ZM645.65 613.56V621.64H649.65V613.56H645.65ZM647.65 619.64H624.53V623.64H647.65V619.64ZM622.53 621.64V637.4H626.53V621.64H622.53ZM624.53 639.4H645.25L645.25 635.4H624.53V639.4ZM643.25 637.4V645.48H647.25V637.4H643.25ZM645.25 643.48H624.53V647.48H645.25V643.48ZM622.53 645.48V662.92H626.53V645.48H622.53ZM624.53 664.92H647.65V660.92H624.53V664.92ZM645.65 662.92V671H649.65V662.92H645.65ZM647.65 669H617.01V673H647.65V669ZM619.01 671V613.56H615.01V671H619.01ZM708.466 613.56V611.56H707.08L706.593 612.857L708.466 613.56ZM716.546 613.56L718.528 613.295L718.296 611.56H716.546V613.56ZM724.226 671V673H726.511L726.208 670.735L724.226 671ZM716.786 671L714.804 671.271L715.041 673H716.786V671ZM710.786 627.16L712.768 626.889L708.905 626.48L710.786 627.16ZM694.946 671V673H696.35L696.827 671.68L694.946 671ZM687.586 671L685.709 671.692L686.192 673H687.586V671ZM671.426 627.16L673.303 626.468L669.442 626.907L671.426 627.16ZM665.826 671V673H667.587L667.81 671.253L665.826 671ZM658.066 671L656.083 670.738L655.784 673H658.066V671ZM665.666 613.56V611.56H663.913L663.683 613.298L665.666 613.56ZM673.746 613.56L675.621 612.863L675.136 611.56H673.746V613.56ZM691.026 660.04L689.151 660.737L691.017 665.756L692.899 660.743L691.026 660.04ZM708.466 615.56H716.546V611.56H708.466V615.56ZM714.564 613.825L722.244 671.265L726.208 670.735L718.528 613.295L714.564 613.825ZM724.226 669H716.786V673H724.226V669ZM718.768 670.729L712.768 626.889L708.804 627.431L714.804 671.271L718.768 670.729ZM708.905 626.48L693.065 670.32L696.827 671.68L712.667 627.84L708.905 626.48ZM694.946 669H687.586V673H694.946V669ZM689.463 670.308L673.303 626.468L669.549 627.852L685.709 671.692L689.463 670.308ZM669.442 626.907L663.842 670.747L667.81 671.253L673.41 627.413L669.442 626.907ZM665.826 669H658.066V673H665.826V669ZM660.049 671.262L667.649 613.822L663.683 613.298L656.083 670.738L660.049 671.262ZM665.666 615.56H673.746V611.56H665.666V615.56ZM671.871 614.257L689.151 660.737L692.901 659.343L675.621 612.863L671.871 614.257ZM692.899 660.743L710.339 614.263L706.593 612.857L689.153 659.337L692.899 660.743ZM737.438 613.56V611.56H735.438V613.56H737.438ZM768.078 613.56H770.078V611.56H768.078V613.56ZM768.078 621.64V623.64H770.078V621.64H768.078ZM744.958 621.64V619.64H742.958V621.64H744.958ZM744.958 637.4H742.958V639.4H744.958V637.4ZM765.678 637.4H767.678V635.4H765.678V637.4ZM765.678 645.48V647.48H767.678V645.48H765.678ZM744.958 645.48V643.48H742.958V645.48H744.958ZM744.958 662.92H742.958V664.92H744.958V662.92ZM768.078 662.92H770.078V660.92H768.078V662.92ZM768.078 671V673H770.078V671H768.078ZM737.438 671H735.438V673H737.438V671ZM737.438 615.56H768.078V611.56H737.438V615.56ZM766.078 613.56V621.64H770.078V613.56H766.078ZM768.078 619.64H744.958V623.64H768.078V619.64ZM742.958 621.64V637.4H746.958V621.64H742.958ZM744.958 639.4H765.678V635.4H744.958V639.4ZM763.678 637.4V645.48H767.678V637.4H763.678ZM765.678 643.48H744.958V647.48H765.678V643.48ZM742.958 645.48V662.92H746.958V645.48H742.958ZM744.958 664.92H768.078V660.92H744.958V664.92ZM766.078 662.92V671H770.078V662.92H766.078ZM768.078 669H737.438V673H768.078V669ZM739.438 671V613.56H735.438V671H739.438ZM780.894 613.56V611.56H778.894V613.56H780.894ZM788.414 613.56H790.414V611.56H788.414V613.56ZM788.414 637.4H786.414V639.4H788.414V637.4ZM819.534 637.4V639.4H821.534V637.4H819.534ZM819.534 613.56V611.56H817.534V613.56H819.534ZM827.054 613.56H829.054V611.56H827.054V613.56ZM827.054 671V673H829.054V671H827.054ZM819.534 671H817.534V673H819.534V671ZM819.534 645.48H821.534V643.48H819.534V645.48ZM788.414 645.48V643.48H786.414V645.48H788.414ZM788.414 671V673H790.414V671H788.414ZM780.894 671H778.894V673H780.894V671ZM780.894 615.56H788.414V611.56H780.894V615.56ZM786.414 613.56V637.4H790.414V613.56H786.414ZM788.414 639.4H819.534V635.4H788.414V639.4ZM821.534 637.4V613.56H817.534V637.4H821.534ZM819.534 615.56H827.054V611.56H819.534V615.56ZM825.054 613.56V671H829.054V613.56H825.054ZM827.054 669H819.534V673H827.054V669ZM821.534 671V645.48H817.534V671H821.534ZM819.534 643.48H788.414V647.48H819.534V643.48ZM786.414 645.48V671H790.414V645.48H786.414ZM788.414 669H780.894V673H788.414V669ZM782.894 671V613.56H778.894V671H782.894ZM842.241 613.56V611.56H840.241V613.56H842.241ZM849.761 613.56H851.761V611.56H849.761V613.56ZM849.761 637.4H847.761V639.4H849.761V637.4ZM880.881 637.4V639.4H882.881V637.4H880.881ZM880.881 613.56V611.56H878.881V613.56H880.881ZM888.401 613.56L890.401 613.56V611.56H888.401V613.56ZM888.401 671V673H890.401V671H888.401ZM880.881 671H878.881V673H880.881V671ZM880.881 645.48H882.881V643.48H880.881V645.48ZM849.761 645.48V643.48H847.761V645.48H849.761ZM849.761 671V673H851.761V671H849.761ZM842.241 671H840.241V673H842.241V671ZM842.241 615.56H849.761V611.56H842.241V615.56ZM847.761 613.56V637.4H851.761V613.56H847.761ZM849.761 639.4H880.881V635.4H849.761V639.4ZM882.881 637.4V613.56H878.881V637.4H882.881ZM880.881 615.56H888.401V611.56L880.881 611.56V615.56ZM886.401 613.56V671H890.401V613.56L886.401 613.56ZM888.401 669H880.881V673H888.401V669ZM882.881 671V645.48H878.881V671H882.881ZM880.881 643.48L849.761 643.48V647.48L880.881 647.48V643.48ZM847.761 645.48V671H851.761V645.48H847.761ZM849.761 669H842.241V673H849.761V669ZM844.241 671V613.56H840.241V671H844.241ZM917.268 614.92L918.059 616.757L918.071 616.752L918.083 616.746L917.268 614.92ZM948.308 621.08L949.736 619.68L949.736 619.68L948.308 621.08ZM954.548 630.52L956.387 629.735L956.387 629.735L954.548 630.52ZM954.548 654.12L956.383 654.914L956.387 654.905L954.548 654.12ZM948.308 663.48L949.736 664.88L949.736 664.88L948.308 663.48ZM939.188 669.72L938.397 667.883L938.386 667.888L939.188 669.72ZM917.268 669.72L916.453 671.546L916.47 671.554L916.487 671.561L917.268 669.72ZM908.148 663.48L906.719 664.88L906.726 664.887L906.734 664.894L908.148 663.48ZM901.908 654.12L900.068 654.905L900.072 654.914L901.908 654.12ZM901.908 630.6L903.748 631.385L903.752 631.375L901.908 630.6ZM908.148 621.16L909.562 622.574L909.569 622.567L909.576 622.56L908.148 621.16ZM919.988 622.36L919.219 620.514L919.219 620.514L919.988 622.36ZM913.268 626.84L911.854 625.426L911.844 625.436L911.834 625.446L913.268 626.84ZM908.788 633.72L906.944 632.946L906.94 632.955L906.936 632.964L908.788 633.72ZM908.788 651.08L906.931 651.823L906.94 651.845L906.949 651.868L908.788 651.08ZM913.268 657.88L911.834 659.274L911.853 659.294L911.874 659.314L913.268 657.88ZM919.988 662.28L919.219 664.126L919.235 664.133L919.252 664.14L919.988 662.28ZM936.548 662.28L937.284 664.14L937.301 664.133L937.317 664.126L936.548 662.28ZM943.188 657.88L944.602 659.294L944.612 659.284L944.622 659.274L943.188 657.88ZM947.588 651.08L945.744 650.306L945.74 650.315L945.736 650.324L947.588 651.08ZM947.588 633.64L945.731 634.383L945.74 634.405L945.749 634.428L947.588 633.64ZM943.188 626.84L941.754 628.234L941.764 628.244L941.774 628.254L943.188 626.84ZM936.548 622.36L937.317 620.514L937.317 620.514L936.548 622.36ZM918.083 616.746C921.29 615.316 924.665 614.6 928.228 614.6V610.6C924.11 610.6 920.179 611.431 916.453 613.094L918.083 616.746ZM928.228 614.6C931.801 614.6 935.184 615.293 938.397 616.677L939.979 613.003C936.258 611.4 932.335 610.6 928.228 610.6V614.6ZM938.397 616.677C941.627 618.068 944.45 620.001 946.879 622.48L949.736 619.68C946.939 616.826 943.682 614.598 939.979 613.003L938.397 616.677ZM946.879 622.48C949.309 624.959 951.254 627.894 952.708 631.305L956.387 629.735C954.749 625.893 952.533 622.534 949.736 619.68L946.879 622.48ZM952.708 631.305C954.142 634.666 954.868 638.318 954.868 642.28H958.868C958.868 637.816 958.047 633.627 956.387 629.735L952.708 631.305ZM954.868 642.28C954.868 646.299 954.141 649.977 952.708 653.335L956.387 654.905C958.048 651.01 958.868 646.794 958.868 642.28H954.868ZM952.712 653.326C951.259 656.684 949.314 659.596 946.879 662.08L949.736 664.88C952.528 662.031 954.743 658.703 956.383 654.914L952.712 653.326ZM946.879 662.08C944.45 664.559 941.627 666.492 938.397 667.883L939.979 671.557C943.682 669.962 946.939 667.734 949.736 664.88L946.879 662.08ZM938.386 667.888C935.23 669.269 931.903 669.96 928.388 669.96V673.96C932.446 673.96 936.319 673.158 939.989 671.552L938.386 667.888ZM928.388 669.96C924.758 669.96 921.317 669.265 918.049 667.879L916.487 671.561C920.258 673.161 924.231 673.96 928.388 673.96V669.96ZM918.083 667.894C914.833 666.444 911.998 664.501 909.562 662.066L906.734 664.894C909.525 667.685 912.769 669.903 916.453 671.546L918.083 667.894ZM909.576 662.08C907.142 659.596 905.197 656.684 903.743 653.326L900.072 654.914C901.712 658.703 903.927 662.031 906.719 664.88L909.576 662.08ZM903.747 653.335C902.314 649.973 901.588 646.322 901.588 642.36H897.588C897.588 646.824 898.409 651.013 900.068 654.905L903.747 653.335ZM901.588 642.36C901.588 638.398 902.314 634.746 903.747 631.385L900.068 629.815C898.409 633.707 897.588 637.896 897.588 642.36H901.588ZM903.752 631.375C905.206 627.915 907.146 624.99 909.562 622.574L906.734 619.746C903.923 622.557 901.703 625.925 900.064 629.825L903.752 631.375ZM909.576 622.56C912.006 620.081 914.828 618.148 918.059 616.757L916.477 613.083C912.774 614.678 909.517 616.906 906.719 619.76L909.576 622.56ZM928.308 618.76C925.078 618.76 922.041 619.338 919.219 620.514L920.757 624.206C923.055 623.249 925.565 622.76 928.308 622.76V618.76ZM919.219 620.514C916.423 621.679 913.962 623.317 911.854 625.426L914.682 628.254C916.413 626.523 918.433 625.175 920.757 624.206L919.219 620.514ZM911.834 625.446C909.779 627.559 908.153 630.067 906.944 632.946L910.632 634.494C911.663 632.04 913.023 629.961 914.702 628.234L911.834 625.446ZM906.936 632.964C905.761 635.844 905.188 638.984 905.188 642.36H909.188C909.188 639.443 909.681 636.823 910.639 634.476L906.936 632.964ZM905.188 642.36C905.188 645.737 905.761 648.898 906.931 651.823L910.645 650.337C909.681 647.928 909.188 645.277 909.188 642.36H905.188ZM906.949 651.868C908.16 654.692 909.786 657.168 911.834 659.274L914.702 656.486C913.016 654.752 911.656 652.694 910.626 650.292L906.949 651.868ZM911.874 659.314C913.981 661.362 916.435 662.966 919.219 664.126L920.757 660.434C918.421 659.46 916.395 658.131 914.662 656.446L911.874 659.314ZM919.252 664.14C922.065 665.253 925.091 665.8 928.308 665.8V661.8C925.552 661.8 923.03 661.333 920.724 660.42L919.252 664.14ZM928.308 665.8C931.476 665.8 934.475 665.252 937.284 664.14L935.812 660.42C933.501 661.335 931.006 661.8 928.308 661.8V665.8ZM937.317 664.126C940.106 662.964 942.541 661.355 944.602 659.294L941.774 656.466C940.101 658.138 938.11 659.462 935.779 660.434L937.317 664.126ZM944.622 659.274C946.677 657.16 948.281 654.674 949.439 651.836L945.736 650.324C944.761 652.713 943.432 654.76 941.754 656.486L944.622 659.274ZM949.432 651.854C950.665 648.918 951.268 645.718 951.268 642.28H947.268C947.268 645.242 946.75 647.909 945.744 650.306L949.432 651.854ZM951.268 642.28C951.268 638.891 950.664 635.74 949.426 632.852L945.749 634.428C946.752 636.767 947.268 639.375 947.268 642.28H951.268ZM949.445 632.897C948.286 630.001 946.676 627.5 944.602 625.426L941.774 628.254C943.432 629.913 944.756 631.945 945.731 634.383L949.445 632.897ZM944.622 625.446C942.56 623.325 940.118 621.681 937.317 620.514L935.779 624.206C938.098 625.172 940.083 626.515 941.754 628.234L944.622 625.446ZM937.317 620.514C934.499 619.34 931.49 618.76 928.308 618.76V622.76C930.993 622.76 933.476 623.247 935.779 624.206L937.317 620.514ZM968.06 613.56V611.56H966.06V613.56H968.06ZM995.9 613.56H997.9V611.56H995.9V613.56ZM995.9 621.64V623.64H997.9V621.64H995.9ZM975.58 621.64V619.64H973.58V621.64H975.58ZM975.58 671V673H977.58V671H975.58ZM968.06 671H966.06V673H968.06V671ZM968.06 615.56H995.9V611.56H968.06V615.56ZM993.9 613.56V621.64H997.9V613.56H993.9ZM995.9 619.64H975.58V623.64H995.9V619.64ZM973.58 621.64V671H977.58V621.64H973.58ZM975.58 669H968.06V673H975.58V669ZM970.06 671V613.56H966.06V671H970.06ZM1019.02 614.92L1019.82 616.757L1019.83 616.752L1019.84 616.746L1019.02 614.92ZM1050.06 621.08L1051.49 619.68L1051.49 619.68L1050.06 621.08ZM1056.3 630.52L1058.14 629.735L1058.14 629.735L1056.3 630.52ZM1056.3 654.12L1058.14 654.914L1058.14 654.905L1056.3 654.12ZM1050.06 663.48L1051.49 664.88L1051.49 664.88L1050.06 663.48ZM1040.94 669.72L1040.15 667.883L1040.14 667.888L1040.94 669.72ZM1019.02 669.72L1018.21 671.546L1018.23 671.554L1018.24 671.561L1019.02 669.72ZM1009.9 663.48L1008.48 664.88L1008.48 664.887L1008.49 664.894L1009.9 663.48ZM1003.66 654.12L1001.82 654.905L1001.83 654.914L1003.66 654.12ZM1003.66 630.6L1005.5 631.385L1005.51 631.375L1003.66 630.6ZM1009.9 621.16L1011.32 622.574L1011.33 622.567L1011.33 622.56L1009.9 621.16ZM1021.74 622.36L1020.97 620.514L1020.97 620.514L1021.74 622.36ZM1015.02 626.84L1013.61 625.426L1013.6 625.436L1013.59 625.446L1015.02 626.84ZM1010.54 633.72L1008.7 632.946L1008.7 632.955L1008.69 632.964L1010.54 633.72ZM1010.54 651.08L1008.69 651.823L1008.7 651.845L1008.71 651.868L1010.54 651.08ZM1015.02 657.88L1013.59 659.274L1013.61 659.294L1013.63 659.314L1015.02 657.88ZM1021.74 662.28L1020.97 664.126L1020.99 664.133L1021.01 664.14L1021.74 662.28ZM1038.3 662.28L1039.04 664.14L1039.06 664.133L1039.07 664.126L1038.3 662.28ZM1044.94 657.88L1046.36 659.294L1046.37 659.284L1046.38 659.274L1044.94 657.88ZM1049.34 651.08L1047.5 650.306L1047.5 650.315L1047.49 650.324L1049.34 651.08ZM1049.34 633.64L1047.49 634.383L1047.5 634.405L1047.51 634.428L1049.34 633.64ZM1044.94 626.84L1043.51 628.234L1043.52 628.244L1043.53 628.254L1044.94 626.84ZM1038.3 622.36L1039.07 620.514L1039.07 620.514L1038.3 622.36ZM1019.84 616.746C1023.05 615.316 1026.42 614.6 1029.98 614.6V610.6C1025.87 610.6 1021.94 611.431 1018.21 613.094L1019.84 616.746ZM1029.98 614.6C1033.56 614.6 1036.94 615.293 1040.15 616.677L1041.74 613.003C1038.01 611.4 1034.09 610.6 1029.98 610.6V614.6ZM1040.15 616.677C1043.38 618.068 1046.21 620.001 1048.64 622.48L1051.49 619.68C1048.7 616.826 1045.44 614.598 1041.74 613.003L1040.15 616.677ZM1048.64 622.48C1051.07 624.959 1053.01 627.894 1054.46 631.305L1058.14 629.735C1056.5 625.893 1054.29 622.534 1051.49 619.68L1048.64 622.48ZM1054.46 631.305C1055.9 634.666 1056.62 638.318 1056.62 642.28H1060.62C1060.62 637.816 1059.8 633.627 1058.14 629.735L1054.46 631.305ZM1056.62 642.28C1056.62 646.299 1055.9 649.977 1054.46 653.335L1058.14 654.905C1059.8 651.01 1060.62 646.794 1060.62 642.28H1056.62ZM1054.47 653.326C1053.02 656.684 1051.07 659.596 1048.64 662.08L1051.49 664.88C1054.28 662.031 1056.5 658.703 1058.14 654.914L1054.47 653.326ZM1048.64 662.08C1046.21 664.559 1043.38 666.492 1040.15 667.883L1041.74 671.557C1045.44 669.962 1048.7 667.734 1051.49 664.88L1048.64 662.08ZM1040.14 667.888C1036.99 669.269 1033.66 669.96 1030.14 669.96V673.96C1034.2 673.96 1038.08 673.158 1041.75 671.552L1040.14 667.888ZM1030.14 669.96C1026.51 669.96 1023.07 669.265 1019.81 667.879L1018.24 671.561C1022.01 673.161 1025.99 673.96 1030.14 673.96V669.96ZM1019.84 667.894C1016.59 666.444 1013.75 664.501 1011.32 662.066L1008.49 664.894C1011.28 667.685 1014.53 669.903 1018.21 671.546L1019.84 667.894ZM1011.33 662.08C1008.9 659.596 1006.95 656.684 1005.5 653.326L1001.83 654.914C1003.47 658.703 1005.68 662.031 1008.48 664.88L1011.33 662.08ZM1005.5 653.335C1004.07 649.973 1003.34 646.322 1003.34 642.36H999.344C999.344 646.824 1000.16 651.013 1001.82 654.905L1005.5 653.335ZM1003.34 642.36C1003.34 638.398 1004.07 634.746 1005.5 631.385L1001.82 629.815C1000.16 633.707 999.344 637.896 999.344 642.36H1003.34ZM1005.51 631.375C1006.96 627.915 1008.9 624.99 1011.32 622.574L1008.49 619.746C1005.68 622.557 1003.46 625.925 1001.82 629.825L1005.51 631.375ZM1011.33 622.56C1013.76 620.081 1016.58 618.148 1019.82 616.757L1018.23 613.083C1014.53 614.678 1011.27 616.906 1008.48 619.76L1011.33 622.56ZM1030.06 618.76C1026.83 618.76 1023.8 619.338 1020.97 620.514L1022.51 624.206C1024.81 623.249 1027.32 622.76 1030.06 622.76V618.76ZM1020.97 620.514C1018.18 621.679 1015.72 623.317 1013.61 625.426L1016.44 628.254C1018.17 626.523 1020.19 625.175 1022.51 624.206L1020.97 620.514ZM1013.59 625.446C1011.54 627.559 1009.91 630.067 1008.7 632.946L1012.39 634.494C1013.42 632.04 1014.78 629.961 1016.46 628.234L1013.59 625.446ZM1008.69 632.964C1007.52 635.844 1006.94 638.984 1006.94 642.36H1010.94C1010.94 639.443 1011.44 636.823 1012.4 634.476L1008.69 632.964ZM1006.94 642.36C1006.94 645.737 1007.52 648.898 1008.69 651.823L1012.4 650.337C1011.44 647.928 1010.94 645.277 1010.94 642.36H1006.94ZM1008.71 651.868C1009.92 654.692 1011.54 657.168 1013.59 659.274L1016.46 656.486C1014.77 654.752 1013.41 652.694 1012.38 650.292L1008.71 651.868ZM1013.63 659.314C1015.74 661.362 1018.19 662.966 1020.97 664.126L1022.51 660.434C1020.18 659.46 1018.15 658.131 1016.42 656.446L1013.63 659.314ZM1021.01 664.14C1023.82 665.253 1026.85 665.8 1030.06 665.8V661.8C1027.31 661.8 1024.79 661.333 1022.48 660.42L1021.01 664.14ZM1030.06 665.8C1033.23 665.8 1036.23 665.252 1039.04 664.14L1037.57 660.42C1035.26 661.335 1032.76 661.8 1030.06 661.8V665.8ZM1039.07 664.126C1041.86 662.964 1044.3 661.355 1046.36 659.294L1043.53 656.466C1041.86 658.138 1039.87 659.462 1037.53 660.434L1039.07 664.126ZM1046.38 659.274C1048.43 657.16 1050.04 654.674 1051.2 651.836L1047.49 650.324C1046.52 652.713 1045.19 654.76 1043.51 656.486L1046.38 659.274ZM1051.19 651.854C1052.42 648.918 1053.02 645.718 1053.02 642.28H1049.02C1049.02 645.242 1048.51 647.909 1047.5 650.306L1051.19 651.854ZM1053.02 642.28C1053.02 638.891 1052.42 635.74 1051.18 632.852L1047.51 634.428C1048.51 636.767 1049.02 639.375 1049.02 642.28H1053.02ZM1051.2 632.897C1050.04 630.001 1048.43 627.5 1046.36 625.426L1043.53 628.254C1045.19 629.913 1046.51 631.945 1047.49 634.383L1051.2 632.897ZM1046.38 625.446C1044.32 623.325 1041.87 621.681 1039.07 620.514L1037.53 624.206C1039.85 625.172 1041.84 626.515 1043.51 628.234L1046.38 625.446ZM1039.07 620.514C1036.26 619.34 1033.25 618.76 1030.06 618.76V622.76C1032.75 622.76 1035.23 623.247 1037.53 624.206L1039.07 620.514Z" fill="#3447F2"/>
<rect x="210.984" y="640.834" width="172.983" height="170.834" transform="rotate(-180 210.984 640.834)" fill="#FFE500"/>
<rect x="90.6479" y="824.834" width="8.59544" height="170.834" transform="rotate(-180 90.6479 824.834)" fill="#FF007A"/>
<rect x="52.0005" y="1165" width="14" height="109" transform="rotate(-180 52.0005 1165)" fill="#FFE500"/>
<rect x="104.596" y="824.834" width="8.59544" height="170.834" transform="rotate(-180 104.596 824.834)" fill="#FF007A"/>
<rect x="74.0005" y="1165" width="14" height="109" transform="rotate(-180 74.0005 1165)" fill="#FFE500"/>
<rect x="118.596" y="824.834" width="8.59544" height="170.834" transform="rotate(-180 118.596 824.834)" fill="#FF007A"/>
<rect x="96.0005" y="1165" width="14" height="109" transform="rotate(-180 96.0005 1165)" fill="#FFE500"/>
<rect x="75.606" y="824.834" width="8.59544" height="170.834" transform="rotate(-180 75.606 824.834)" fill="#FF007A"/>
<rect x="60.5635" y="824.834" width="8.59544" height="170.834" transform="rotate(-180 60.5635 824.834)" fill="#FF007A"/>
<rect x="46.5962" y="824.834" width="8.59544" height="170.834" transform="rotate(-180 46.5962 824.834)" fill="#FF007A"/>
<rect x="211" y="838" width="21.2245" height="173" transform="rotate(90 211 838)" fill="#3447F2"/>
<rect x="211" y="875.142" width="21.2245" height="173" transform="rotate(90 211 875.142)" fill="#3447F2"/>
<rect x="211" y="912.285" width="21.2245" height="173" transform="rotate(90 211 912.285)" fill="#3447F2"/>
<rect x="211" y="946.775" width="21.2245" height="173" transform="rotate(90 211 946.775)" fill="#3447F2"/>
<path d="M1407.13 54.5692C1407.13 61.7353 1405.67 68.8313 1402.83 75.452C1399.98 82.0727 1395.82 88.0884 1390.56 93.1556C1385.31 98.2229 1379.08 102.242 1372.21 104.985C1365.35 107.727 1357.99 109.139 1350.57 109.139L1350.57 84.5824C1354.65 84.5824 1358.7 83.8061 1362.47 82.2978C1366.25 80.7895 1369.68 78.5787 1372.57 75.7917C1375.45 73.0047 1377.75 69.6961 1379.31 66.0547C1380.87 62.4134 1381.68 58.5106 1381.68 54.5692L1407.13 54.5692Z" fill="#FF007A"/>
<mask id="path-18-inside-1_712_1328" fill="white">
<path d="M208.132 988.569C208.132 995.735 206.669 1002.83 203.827 1009.45C200.984 1016.07 196.817 1022.09 191.565 1027.16C186.312 1032.22 180.076 1036.24 173.213 1038.98C166.35 1041.73 158.995 1043.14 151.566 1043.14L151.566 1018.58C155.652 1018.58 159.698 1017.81 163.472 1016.3C167.247 1014.79 170.676 1012.58 173.565 1009.79C176.454 1007 178.746 1003.7 180.309 1000.05C181.873 996.413 182.678 992.511 182.678 988.569L208.132 988.569Z"/>
</mask>
<path d="M208.132 988.569C208.132 995.735 206.669 1002.83 203.827 1009.45C200.984 1016.07 196.817 1022.09 191.565 1027.16C186.312 1032.22 180.076 1036.24 173.213 1038.98C166.35 1041.73 158.995 1043.14 151.566 1043.14L151.566 1018.58C155.652 1018.58 159.698 1017.81 163.472 1016.3C167.247 1014.79 170.676 1012.58 173.565 1009.79C176.454 1007 178.746 1003.7 180.309 1000.05C181.873 996.413 182.678 992.511 182.678 988.569L208.132 988.569Z" stroke="#FFE500" stroke-width="6" mask="url(#path-18-inside-1_712_1328)"/>
<mask id="path-19-inside-2_712_1328" fill="white">
<path d="M1350.57 554.347C1335.56 554.347 1321.18 548.597 1310.57 538.364C1299.96 528.13 1294 514.25 1294 499.777L1350.57 499.777L1350.57 554.347Z"/>
</mask>
<path d="M1350.57 554.347C1335.56 554.347 1321.18 548.597 1310.57 538.364C1299.96 528.13 1294 514.25 1294 499.777L1350.57 499.777L1350.57 554.347Z" stroke="black" stroke-width="6" mask="url(#path-19-inside-2_712_1328)"/>
<path d="M1294 61.5575C1294 54.3913 1295.46 47.2953 1298.31 40.6746C1301.15 34.0539 1305.32 28.0382 1310.57 22.971C1315.82 17.9038 1322.06 13.8842 1328.92 11.1418C1335.78 8.39945 1343.14 6.98796 1350.57 6.98797L1350.57 61.5575L1294 61.5575Z" fill="#3447F2"/>
<ellipse cx="1350.57" cy="278.005" rx="54.4031" ry="56.5659" transform="rotate(-90 1350.57 278.005)" fill="#FF007A"/>
<mask id="path-22-inside-3_712_1328" fill="white">
<path d="M1294 324.902C1294 339.463 1299.96 353.428 1310.57 363.724C1321.18 374.02 1335.56 379.805 1350.57 379.805C1365.57 379.805 1379.96 374.02 1390.56 363.724C1401.17 353.428 1407.13 339.463 1407.13 324.902L1381.68 324.902C1381.68 332.911 1378.4 340.592 1372.57 346.254C1366.73 351.917 1358.82 355.099 1350.57 355.099C1342.32 355.099 1334.4 351.917 1328.57 346.254C1322.73 340.592 1319.46 332.911 1319.46 324.902H1294Z"/>
</mask>
<path d="M1294 324.902C1294 339.463 1299.96 353.428 1310.57 363.724C1321.18 374.02 1335.56 379.805 1350.57 379.805C1365.57 379.805 1379.96 374.02 1390.56 363.724C1401.17 353.428 1407.13 339.463 1407.13 324.902L1381.68 324.902C1381.68 332.911 1378.4 340.592 1372.57 346.254C1366.73 351.917 1358.82 355.099 1350.57 355.099C1342.32 355.099 1334.4 351.917 1328.57 346.254C1322.73 340.592 1319.46 332.911 1319.46 324.902H1294Z" stroke="#3447F2" stroke-width="6" mask="url(#path-22-inside-3_712_1328)"/>
<mask id="path-23-inside-4_712_1328" fill="white">
<path d="M1294 113.798C1294 128.27 1299.96 142.15 1310.57 152.384C1321.18 162.618 1335.56 168.367 1350.57 168.367C1365.57 168.367 1379.96 162.618 1390.56 152.384C1401.17 142.15 1407.13 128.27 1407.13 113.798L1350.57 113.798L1294 113.798Z"/>
</mask>
<path d="M1294 113.798C1294 128.27 1299.96 142.15 1310.57 152.384C1321.18 162.618 1335.56 168.367 1350.57 168.367C1365.57 168.367 1379.96 162.618 1390.56 152.384C1401.17 142.15 1407.13 128.27 1407.13 113.798L1350.57 113.798L1294 113.798Z" stroke="black" stroke-width="6" mask="url(#path-23-inside-4_712_1328)"/>
<path d="M1407.13 441.714C1407.13 427.285 1401.17 413.447 1390.56 403.245C1379.96 393.042 1365.57 387.311 1350.57 387.311C1335.56 387.311 1321.18 393.042 1310.57 403.245C1299.96 413.447 1294 427.285 1294 441.714L1350.57 441.714L1407.13 441.714Z" fill="#FF007A"/>
<path d="M1407.13 222.937C1407.13 208.464 1401.17 194.584 1390.56 184.35C1379.96 174.116 1365.57 168.367 1350.57 168.367C1335.56 168.367 1321.18 174.116 1310.57 184.35C1299.96 194.584 1294 208.464 1294 222.937L1319.46 222.937C1319.46 214.977 1322.73 207.343 1328.57 201.714C1334.4 196.086 1342.32 192.923 1350.57 192.923C1358.82 192.923 1366.73 196.086 1372.57 201.714C1378.4 207.343 1381.68 214.977 1381.68 222.937L1407.13 222.937Z" fill="#3447F2"/>
<path d="M1350.57 441.881C1357.99 441.881 1365.35 443.292 1372.21 446.034C1379.08 448.777 1385.31 452.796 1390.56 457.864C1395.82 462.931 1399.98 468.947 1402.83 475.567C1405.67 482.188 1407.13 489.284 1407.13 496.45L1383.47 496.45C1383.47 492.282 1382.62 488.155 1380.96 484.304C1379.31 480.453 1376.89 476.954 1373.83 474.007C1370.78 471.059 1367.15 468.721 1363.16 467.126C1359.17 465.531 1354.89 464.71 1350.57 464.71V441.881Z" fill="#FFE500"/>
<path d="M1294 566.569C1294 581.042 1299.96 594.922 1310.57 605.156C1321.18 615.389 1335.56 621.139 1350.57 621.139C1365.57 621.139 1379.96 615.389 1390.56 605.156C1401.17 594.922 1407.13 581.042 1407.13 566.569L1350.57 566.569H1294Z" fill="#FF007A"/>
<path d="M38.0004 988.569C38.0004 1003.04 43.9601 1016.92 54.5682 1027.16C65.1764 1037.39 79.5642 1043.14 94.5664 1043.14C109.569 1043.14 123.956 1037.39 134.565 1027.16C145.173 1016.92 151.132 1003.04 151.132 988.569L94.5664 988.569H38.0004Z" fill="#FF007A"/>
<path d="M1294 626.237C1294 640.621 1299.96 654.417 1310.57 664.588C1321.18 674.759 1335.56 680.474 1350.57 680.474C1365.57 680.474 1379.96 674.759 1390.56 664.588C1401.17 654.417 1407.13 640.621 1407.13 626.237L1381.68 626.237C1381.68 634.148 1378.4 641.736 1372.57 647.33C1366.73 652.924 1358.82 656.067 1350.57 656.067C1342.32 656.067 1334.4 652.924 1328.57 647.33C1322.73 641.736 1319.46 634.148 1319.46 626.237H1294Z" fill="#FFE500"/>
<mask id="path-30-inside-5_712_1328" fill="white">
<path d="M124.5 825C147.442 825 169.443 815.992 185.665 799.958C201.887 783.923 211 762.176 211 739.5C211 716.824 201.887 695.077 185.665 679.042C169.443 663.008 147.442 654 124.501 654L124.5 692.475C137.118 692.475 149.219 697.429 158.141 706.248C167.063 715.067 172.075 727.028 172.075 739.5C172.075 751.972 167.063 763.933 158.141 772.752C149.219 781.571 137.118 786.525 124.5 786.525L124.5 825Z"/>
</mask>
<path d="M124.5 825C147.442 825 169.443 815.992 185.665 799.958C201.887 783.923 211 762.176 211 739.5C211 716.824 201.887 695.077 185.665 679.042C169.443 663.008 147.442 654 124.501 654L124.5 692.475C137.118 692.475 149.219 697.429 158.141 706.248C167.063 715.067 172.075 727.028 172.075 739.5C172.075 751.972 167.063 763.933 158.141 772.752C149.219 781.571 137.118 786.525 124.5 786.525L124.5 825Z" stroke="black" stroke-width="6" mask="url(#path-30-inside-5_712_1328)"/>
<circle cx="150" cy="1114.81" r="50" transform="rotate(-90 150 1114.81)" fill="#56FF53"/>
</g>
<defs>
<clipPath id="clip0_712_1328">
<rect width="1440" height="1165" fill="white"/>
</clipPath>
</defs>
</svg>
