<svg width="1440" height="1205" viewBox="0 0 1440 1205" fill="none" xmlns="http://www.w3.org/2000/svg">
<rect width="1440" height="1205" fill="white"/>
<rect x="176.5" y="306.5" width="382" height="619" stroke="black" stroke-width="5"/>
<rect x="985" y="424.999" width="23" height="780" fill="black"/>
<path d="M1005.5 427.499H1252.69L1293 487.66L1252.67 549.499H1005.5V427.499Z" stroke="black" stroke-width="5"/>
<path d="M1082.75 475.799C1084.08 475.799 1085.35 475.949 1086.55 476.249C1087.75 476.549 1088.8 477.016 1089.7 477.649C1090.6 478.249 1091.3 479.049 1091.8 480.049C1092.33 481.016 1092.6 482.166 1092.6 483.499C1092.6 484.566 1092.43 485.399 1092.1 485.999C1091.77 486.599 1091.35 487.183 1090.85 487.749C1091.72 488.416 1092.47 489.233 1093.1 490.199C1093.77 491.133 1094.1 492.333 1094.1 493.799C1094.1 495.166 1093.82 496.366 1093.25 497.399C1092.72 498.433 1091.98 499.299 1091.05 499.999C1090.15 500.666 1089.08 501.166 1087.85 501.499C1086.65 501.833 1085.4 501.999 1084.1 501.999H1072.65V475.799H1082.75ZM1084.95 495.449C1085.52 495.449 1085.98 495.266 1086.35 494.899C1086.75 494.533 1086.95 494.066 1086.95 493.499C1086.95 493.066 1086.78 492.633 1086.45 492.199C1086.12 491.766 1085.6 491.549 1084.9 491.549H1079.6V495.449H1084.95ZM1083.4 486.149C1084.13 486.149 1084.68 485.966 1085.05 485.599C1085.42 485.199 1085.6 484.749 1085.6 484.249C1085.6 483.816 1085.42 483.399 1085.05 482.999C1084.72 482.566 1084.15 482.349 1083.35 482.349H1079.6V486.149H1083.4ZM1124.85 475.799H1132.2V501.999H1124.85V475.799ZM1100.05 501.999V475.799H1107.4V482.699H1110.8C1112.3 482.699 1113.67 482.916 1114.9 483.349C1116.14 483.783 1117.19 484.416 1118.05 485.249C1118.95 486.049 1119.65 487.066 1120.15 488.299C1120.65 489.499 1120.9 490.866 1120.9 492.399C1120.9 493.966 1120.64 495.349 1120.1 496.549C1119.6 497.716 1118.9 498.716 1118 499.549C1117.1 500.349 1116.02 500.966 1114.75 501.399C1113.52 501.799 1112.19 501.999 1110.75 501.999H1100.05ZM1110.9 494.899C1111.8 494.899 1112.5 494.649 1113 494.149C1113.5 493.616 1113.75 492.999 1113.75 492.299C1113.75 491.533 1113.49 490.933 1112.95 490.499C1112.42 490.033 1111.74 489.799 1110.9 489.799H1107.4V494.899H1110.9ZM1145.46 501.999H1136.61L1146.21 488.199L1137.71 475.799H1146.31L1150.66 482.149L1155.01 475.799H1163.91L1155.26 488.199L1164.86 501.999H1156.21L1150.76 494.399L1145.46 501.999ZM1175.44 476.099C1177.14 475.399 1178.94 475.049 1180.84 475.049C1182.74 475.049 1184.54 475.399 1186.24 476.099C1187.94 476.799 1189.44 477.766 1190.74 478.999C1192.04 480.199 1193.07 481.649 1193.84 483.349C1194.6 485.049 1194.99 486.899 1194.99 488.899C1194.99 490.899 1194.6 492.749 1193.84 494.449C1193.07 496.149 1192.04 497.616 1190.74 498.849C1189.44 500.049 1187.94 500.999 1186.24 501.699C1184.54 502.399 1182.74 502.749 1180.84 502.749C1178.94 502.749 1177.14 502.399 1175.44 501.699C1173.74 500.999 1172.24 500.049 1170.94 498.849C1169.64 497.616 1168.6 496.149 1167.84 494.449C1167.07 492.749 1166.69 490.899 1166.69 488.899C1166.69 486.899 1167.07 485.049 1167.84 483.349C1168.6 481.649 1169.64 480.199 1170.94 478.999C1172.24 477.766 1173.74 476.799 1175.44 476.099ZM1178.24 494.499C1179.07 494.799 1179.94 494.949 1180.84 494.949C1181.74 494.949 1182.59 494.799 1183.39 494.499C1184.22 494.199 1184.94 493.799 1185.54 493.299C1186.17 492.766 1186.65 492.133 1186.99 491.399C1187.35 490.633 1187.54 489.799 1187.54 488.899C1187.54 487.999 1187.35 487.183 1186.99 486.449C1186.65 485.683 1186.17 485.049 1185.54 484.549C1184.94 484.016 1184.22 483.599 1183.39 483.299C1182.59 482.999 1181.74 482.849 1180.84 482.849C1179.94 482.849 1179.07 482.999 1178.24 483.299C1177.44 483.599 1176.72 484.016 1176.09 484.549C1175.49 485.049 1175 485.683 1174.64 486.449C1174.3 487.183 1174.14 487.999 1174.14 488.899C1174.14 489.799 1174.3 490.633 1174.64 491.399C1175 492.133 1175.49 492.766 1176.09 493.299C1176.72 493.799 1177.44 494.199 1178.24 494.499ZM1201.02 494.399C1202.15 492.633 1203.08 490.366 1203.82 487.599C1204.55 484.799 1204.92 481.549 1204.92 477.849V475.799H1224.67V494.399H1228.07V508.949H1220.92V501.999H1205.62V508.949H1198.37V494.399H1201.02ZM1217.32 494.399V483.399H1211.42C1211.15 485.733 1210.8 487.799 1210.37 489.599C1209.93 491.399 1209.33 492.999 1208.57 494.399H1217.32Z" fill="black"/>
<path d="M987.5 588.499H740.314L699.997 648.66L740.334 710.499H987.5V588.499Z" stroke="black" stroke-width="5"/>
<path d="M816.2 656.499C818.367 656.499 819.45 655.933 819.45 654.799C819.45 654.333 819.233 653.949 818.8 653.649C818.367 653.316 817.733 653.149 816.9 653.149H813.1V646.699H815.8C816.467 646.699 817.1 646.599 817.7 646.399C818.3 646.199 818.6 645.783 818.6 645.149C818.6 644.616 818.333 644.199 817.8 643.899C817.267 643.599 816.55 643.449 815.65 643.449C814.617 643.449 813.45 643.649 812.15 644.049C810.883 644.416 809.75 645.083 808.75 646.049L807.1 640.149C807.467 639.616 807.95 639.099 808.55 638.599C809.183 638.099 809.883 637.666 810.65 637.299C811.45 636.899 812.317 636.599 813.25 636.399C814.183 636.166 815.15 636.049 816.15 636.049C819.283 636.049 821.717 636.766 823.45 638.199C825.217 639.599 826.1 641.566 826.1 644.099C826.1 645.199 825.833 646.199 825.3 647.099C824.767 647.966 824.167 648.649 823.5 649.149C824.567 649.716 825.417 650.466 826.05 651.399C826.717 652.333 827.05 653.566 827.05 655.099C827.05 656.466 826.75 657.683 826.15 658.749C825.583 659.816 824.8 660.733 823.8 661.499C822.8 662.233 821.617 662.783 820.25 663.149C818.917 663.549 817.483 663.749 815.95 663.749C814.983 663.749 814.017 663.649 813.05 663.449C812.083 663.249 811.15 662.949 810.25 662.549C809.383 662.149 808.567 661.649 807.8 661.049C807.067 660.449 806.433 659.766 805.9 658.999L807.95 652.949C808.583 653.849 809.567 654.666 810.9 655.399C812.233 656.133 814 656.499 816.2 656.499ZM847.791 653.499C847.624 653.133 847.157 652.799 846.391 652.499C845.657 652.166 844.757 651.999 843.691 651.999C842.191 651.999 841.074 652.249 840.341 652.749C839.641 653.216 839.291 653.833 839.291 654.599C839.291 655.433 839.674 656.083 840.441 656.549C841.207 656.983 842.274 657.199 843.641 657.199C844.707 657.199 845.591 657.016 846.291 656.649C847.024 656.283 847.524 655.849 847.791 655.349V653.499ZM833.191 640.499C833.624 639.799 834.224 639.183 834.991 638.649C835.757 638.083 836.607 637.616 837.541 637.249C838.474 636.849 839.457 636.549 840.491 636.349C841.557 636.149 842.574 636.049 843.541 636.049C845.274 636.049 846.841 636.283 848.241 636.749C849.674 637.216 850.891 637.899 851.891 638.799C852.924 639.699 853.724 640.816 854.291 642.149C854.857 643.449 855.141 644.949 855.141 646.649V662.999H848.041V660.749C847.407 661.716 846.424 662.466 845.091 662.999C843.791 663.499 842.441 663.749 841.041 663.749C839.774 663.749 838.574 663.533 837.441 663.099C836.341 662.699 835.374 662.133 834.541 661.399C833.707 660.633 833.041 659.716 832.541 658.649C832.074 657.583 831.841 656.399 831.841 655.099C831.841 653.699 832.124 652.466 832.691 651.399C833.257 650.299 834.007 649.399 834.941 648.699C835.907 647.966 836.991 647.416 838.191 647.049C839.424 646.649 840.691 646.449 841.991 646.449C843.924 646.449 845.341 646.666 846.241 647.099C847.141 647.533 847.657 647.866 847.791 648.099V647.399C847.791 645.999 847.291 644.999 846.291 644.399C845.291 643.766 844.091 643.449 842.691 643.449C841.091 643.449 839.574 643.733 838.141 644.299C836.707 644.866 835.624 645.566 834.891 646.399L833.191 640.499ZM859.652 656.099C860.318 656.066 860.935 656.016 861.502 655.949C862.068 655.849 862.568 655.633 863.002 655.299C863.468 654.966 863.885 654.466 864.252 653.799C864.618 653.099 864.935 652.133 865.202 650.899C865.468 649.666 865.668 648.133 865.802 646.299C865.968 644.433 866.085 642.166 866.152 639.499L866.202 636.799H886.702V662.999H879.402V644.499H872.902L872.802 646.599C872.668 649.566 872.368 652.099 871.902 654.199C871.468 656.299 870.868 658.016 870.102 659.349C869.368 660.683 868.468 661.666 867.402 662.299C866.335 662.899 865.135 663.199 863.802 663.199C863.235 663.199 862.668 663.149 862.102 663.049C861.568 662.983 861.168 662.883 860.902 662.749L859.652 656.099ZM916.929 634.549C916.063 634.549 915.263 634.683 914.529 634.949C913.796 635.216 913.129 635.566 912.529 635.999C911.929 636.433 911.379 636.933 910.879 637.499C910.413 638.066 909.996 638.666 909.629 639.299L906.479 633.899C906.746 632.866 907.196 631.899 907.829 630.999C908.496 630.066 909.296 629.266 910.229 628.599C911.196 627.899 912.296 627.349 913.529 626.949C914.763 626.549 916.096 626.349 917.529 626.349C919.396 626.349 921.046 626.633 922.479 627.199C923.913 627.766 925.113 628.549 926.079 629.549C927.046 630.549 927.779 631.716 928.279 633.049C928.779 634.383 929.029 635.816 929.029 637.349C929.029 638.649 928.879 639.849 928.579 640.949C928.279 642.016 927.829 643.066 927.229 644.099C926.663 645.133 925.946 646.183 925.079 647.249C924.213 648.316 923.213 649.483 922.079 650.749L918.479 654.799H929.729V662.999H906.729V656.649L916.979 645.499C917.713 644.699 918.346 643.999 918.879 643.399C919.413 642.799 919.846 642.233 920.179 641.699C920.546 641.133 920.813 640.599 920.979 640.099C921.179 639.566 921.279 638.983 921.279 638.349C921.279 637.283 920.879 636.383 920.079 635.649C919.313 634.916 918.263 634.549 916.929 634.549Z" fill="black"/>
<path d="M311.132 390.484C311.132 397.65 309.669 404.746 306.826 411.367C303.983 417.988 299.817 424.003 294.564 429.071C289.311 434.138 283.076 438.157 276.213 440.9C269.35 443.642 261.994 445.054 254.566 445.054L254.566 420.497C258.652 420.497 262.697 419.721 266.472 418.213C270.246 416.704 273.676 414.494 276.565 411.707C279.454 408.92 281.746 405.611 283.309 401.97C284.872 398.328 285.677 394.425 285.677 390.484L311.132 390.484Z" fill="#FF007A"/>
<path d="M254.566 890.261C239.564 890.261 225.176 884.512 214.568 874.278C203.96 864.044 198 850.164 198 835.691L254.566 835.691L254.566 890.261Z" fill="#FFE500"/>
<path d="M480.83 780.789C480.83 787.955 479.367 795.051 476.524 801.672C473.682 808.293 469.515 814.308 464.262 819.376C459.01 824.443 452.774 828.463 445.911 831.205C439.048 833.947 431.693 835.359 424.264 835.359L424.264 812.529C428.585 812.529 432.863 811.708 436.855 810.113C440.847 808.518 444.474 806.18 447.529 803.233C450.584 800.285 453.007 796.786 454.661 792.936C456.314 789.085 457.165 784.957 457.165 780.789L480.83 780.789Z" fill="#FFE500"/>
<path d="M537.729 834.194C537.729 841.338 536.265 848.413 533.423 855.013C530.58 861.614 526.413 867.611 521.161 872.663C515.908 877.715 509.672 881.722 502.809 884.456C495.947 887.19 488.591 888.597 481.163 888.597L481.163 834.194L537.729 834.194Z" fill="#56FF53"/>
<ellipse cx="480.83" cy="617.58" rx="54.4031" ry="56.5659" transform="rotate(-90 480.83 617.58)" fill="#3447F2"/>
<path d="M367.864 452.041C375.314 452.041 382.692 453.457 389.575 456.208C396.458 458.959 402.712 462.99 407.98 468.073C413.248 473.156 417.427 479.19 420.278 485.831C423.129 492.472 424.596 499.589 424.596 506.777C424.596 513.965 423.129 521.083 420.278 527.724C417.427 534.365 413.248 540.399 407.98 545.481C402.712 550.564 396.458 554.596 389.575 557.347C382.692 560.097 375.314 561.513 367.864 561.513L367.864 506.777V452.041Z" fill="#FF007A"/>
<path d="M198 397.472C198 390.305 199.463 383.209 202.306 376.589C205.149 369.968 209.315 363.952 214.568 358.885C219.82 353.818 226.056 349.798 232.919 347.056C239.782 344.314 247.138 342.902 254.566 342.902L254.566 397.472L198 397.472Z" fill="#FFE500"/>
<ellipse cx="254.566" cy="613.92" rx="54.4031" ry="56.5659" transform="rotate(-90 254.566 613.92)" fill="#56FF53"/>
<path d="M367.864 669.987C360.414 669.987 353.037 671.407 346.154 674.166C339.271 676.925 333.016 680.969 327.748 686.067C322.48 691.165 318.301 697.218 315.45 703.879C312.599 710.54 311.132 717.679 311.132 724.889C311.132 732.099 312.599 739.238 315.45 745.899C318.301 752.56 322.48 758.612 327.748 763.711C333.016 768.809 339.271 772.853 346.154 775.612C353.037 778.371 360.414 779.791 367.864 779.791L367.864 724.889V669.987Z" fill="#FFE500"/>
<path d="M311.132 780.457C311.132 794.929 317.109 808.809 327.749 819.043C338.388 829.277 352.818 835.026 367.864 835.026C382.911 835.026 397.341 829.277 407.98 819.043C418.62 808.809 424.597 794.929 424.597 780.457L367.864 780.457H311.132Z" fill="#FFE500"/>
<path d="M311.132 561.18C311.132 575.741 317.109 589.706 327.749 600.002C338.388 610.298 352.818 616.083 367.864 616.083C382.911 616.083 397.341 610.298 407.98 600.002C418.62 589.706 424.597 575.741 424.597 561.18L367.864 561.18H311.132Z" fill="#FFE500"/>
<path d="M198 668.323C198 682.884 203.96 696.848 214.568 707.145C225.176 717.441 239.564 723.225 254.566 723.225C269.568 723.225 283.956 717.441 294.564 707.145C305.172 696.848 311.132 682.884 311.132 668.323L285.677 668.323C285.677 676.331 282.399 684.012 276.565 689.675C270.73 695.338 262.817 698.519 254.566 698.519C246.315 698.519 238.401 695.338 232.567 689.675C226.732 684.012 223.455 676.331 223.455 668.323H198Z" fill="#FFE500"/>
<path d="M198 449.712C198 464.185 203.96 478.065 214.568 488.299C225.176 498.532 239.564 504.282 254.566 504.282C269.568 504.282 283.956 498.532 294.564 488.299C305.172 478.065 311.132 464.185 311.132 449.712L254.566 449.712H198Z" fill="#00FF57"/>
<path d="M424.597 672.316C424.597 686.788 430.556 700.668 441.164 710.902C451.773 721.136 466.16 726.885 481.163 726.885C496.165 726.885 510.553 721.136 521.161 710.902C531.769 700.668 537.729 686.788 537.729 672.316L481.163 672.316H424.597Z" fill="#FFE500"/>
<path d="M424.597 453.372C424.597 467.757 430.556 481.552 441.164 491.723C451.773 501.895 466.16 507.609 481.163 507.609C496.165 507.609 510.553 501.895 521.161 491.723C531.769 481.552 537.729 467.757 537.729 453.372L512.274 453.372C512.274 461.284 508.996 468.871 503.162 474.465C497.327 480.06 489.414 483.202 481.163 483.202C472.911 483.202 464.998 480.06 459.164 474.465C453.329 468.871 450.051 461.284 450.051 453.372H424.597Z" fill="#FFE500"/>
<path d="M311.132 342.736C311.132 357.253 317.109 371.175 327.749 381.44C338.388 391.705 352.818 397.472 367.864 397.472C382.911 397.472 397.341 391.705 407.98 381.44C418.62 371.175 424.597 357.253 424.597 342.736L399.067 342.736C399.067 350.72 395.78 358.377 389.928 364.023C384.076 369.669 376.14 372.841 367.864 372.841C359.589 372.841 351.652 369.669 345.801 364.023C339.949 358.377 336.662 350.72 336.662 342.736H311.132Z" fill="#3447F2"/>
<path d="M424.596 888.93C424.596 874.457 418.619 860.577 407.98 850.343C397.341 840.11 382.91 834.36 367.864 834.36C352.818 834.36 338.388 840.11 327.748 850.343C317.109 860.577 311.132 874.457 311.132 888.93L336.661 888.93C336.661 880.97 339.949 873.336 345.8 867.707C351.652 862.079 359.589 858.917 367.864 858.917C376.14 858.917 384.076 862.079 389.928 867.707C395.779 873.336 399.067 880.97 399.067 888.93H424.596Z" fill="#3447F2"/>
<path d="M424.596 670.652C424.596 656.179 418.619 642.299 407.98 632.066C397.341 621.832 382.91 616.083 367.864 616.083C352.818 616.083 338.388 621.832 327.748 632.066C317.109 642.299 311.132 656.179 311.132 670.652L367.864 670.652H424.596Z" fill="#3447F2"/>
<path d="M311.132 777.628C311.132 763.2 305.172 749.362 294.564 739.159C283.956 728.957 269.568 723.225 254.566 723.225C239.564 723.225 225.176 728.957 214.568 739.159C203.96 749.362 198 763.2 198 777.628L254.566 777.628H311.132Z" fill="#FF007A"/>
<path d="M311.132 558.851C311.132 544.378 305.172 530.498 294.564 520.265C283.956 510.031 269.568 504.282 254.566 504.282C239.564 504.282 225.176 510.031 214.568 520.265C203.96 530.498 198 544.378 198 558.851L223.455 558.851C223.455 550.891 226.732 543.257 232.567 537.629C238.401 532 246.315 528.838 254.566 528.838C262.817 528.838 270.73 532 276.565 537.629C282.399 543.257 285.677 550.891 285.677 558.851H311.132Z" fill="#3447F2"/>
<path d="M537.729 781.455C537.729 766.982 531.769 753.102 521.161 742.868C510.553 732.635 496.165 726.885 481.163 726.885C466.16 726.885 451.773 732.635 441.164 742.868C430.556 753.102 424.597 766.982 424.597 781.455L450.051 781.455C450.051 773.495 453.329 765.861 459.164 760.232C464.998 754.604 472.911 751.442 481.163 751.442C489.414 751.442 497.327 754.604 503.162 760.232C508.996 765.861 512.274 773.495 512.274 781.455H537.729Z" fill="#FF007A"/>
<path d="M537.729 562.677C537.729 548.072 531.769 534.065 521.161 523.738C510.553 513.411 496.165 507.609 481.163 507.609C466.16 507.609 451.773 513.411 441.164 523.738C430.556 534.065 424.597 548.072 424.597 562.677L481.163 562.677H537.729Z" fill="#56FF53"/>
<path d="M424.596 451.875C424.596 437.446 418.619 423.609 407.98 413.406C397.341 403.204 382.91 397.472 367.864 397.472C352.818 397.472 338.388 403.204 327.748 413.406C317.109 423.609 311.132 437.446 311.132 451.875L367.864 451.875L424.596 451.875Z" fill="#3447F2"/>
<path d="M424.264 398.47C431.693 398.47 439.048 399.877 445.911 402.611C452.774 405.345 459.01 409.352 464.262 414.404C469.515 419.456 473.682 425.453 476.524 432.054C479.367 438.654 480.83 445.729 480.83 452.873L457.165 452.873C457.165 448.718 456.314 444.603 454.661 440.764C453.007 436.925 450.584 433.436 447.529 430.498C444.474 427.56 440.847 425.229 436.855 423.639C432.863 422.049 428.585 421.23 424.264 421.23V398.47Z" fill="#FFE500"/>
<path d="M254.566 777.795C261.994 777.795 269.35 779.206 276.213 781.948C283.076 784.691 289.311 788.71 294.564 793.778C299.817 798.845 303.983 804.861 306.826 811.481C309.669 818.102 311.132 825.198 311.132 832.364L287.467 832.364C287.467 828.196 286.616 824.069 284.962 820.218C283.309 816.367 280.886 812.868 277.83 809.921C274.775 806.973 271.148 804.636 267.157 803.04C263.165 801.445 258.887 800.624 254.566 800.624L254.566 777.795Z" fill="#FFE500"/>
<path d="M481.163 342.902C488.591 342.902 495.947 344.314 502.809 347.056C509.672 349.798 515.908 353.818 521.161 358.885C526.413 363.952 530.58 369.968 533.423 376.589C536.265 383.209 537.729 390.305 537.729 397.472L481.163 397.472V342.902Z" fill="#FF007A"/>
</svg>
