<svg width="1440" height="1153" viewBox="0 0 1440 1153" fill="none" xmlns="http://www.w3.org/2000/svg">
<g clip-path="url(#clip0_554_745)">
<rect width="1440" height="1153" fill="white"/>
<rect x="-38" y="136" width="1477" height="1031" fill="#5EFF5A"/>
<path d="M1440 106L131 106L157.828 204.627L366.883 223.633L480.775 381.848L352.204 763L873.577 718.31L821.945 718.31L963.172 505.131L1066.43 359.246L1106.93 707.009L1201.42 680.123L1172.73 381.848L1223.35 329.966L1440 181.511L1440 106Z" fill="white"/>
<path d="M-50.002 127.958L86.3561 -27.7486L182.568 -45.5804L306.87 625.098L184.504 647.777L91.0175 143.367L-25.5915 259.665L-50.002 127.958Z" fill="white"/>
<path d="M309.375 303.983C293.446 306.935 279.429 311.974 267.325 319.099C255.221 326.224 244.625 334.9 235.536 345.128C226.339 354.765 218.539 365.364 212.139 376.924C205.738 388.484 200.572 400.12 196.641 411.833L131.668 337.834C133.217 319.851 137.879 302.206 145.655 284.899C154.022 267.482 165.13 251.694 178.982 237.532C193.313 222.672 210.202 210.083 229.648 199.767C248.984 188.86 270.746 181.166 294.934 176.683C326.202 170.888 354.859 170.763 380.906 176.309C406.953 181.856 429.876 191.947 449.675 206.584C469.364 220.631 485.471 238.393 497.994 259.871C511.108 281.239 520.07 304.902 524.881 330.86C529.146 353.868 530.427 375.598 528.726 396.051C527.024 416.503 522.614 437.153 515.493 458C508.963 478.737 499.833 500.261 488.102 522.573C476.262 544.294 462.445 568.517 446.651 595.243L385.507 699.939L601.43 659.92L624.719 785.58L230.926 858.566L212.556 759.453L353.852 529.148C364.098 511.993 373.087 496.292 380.82 482.045C389.143 467.687 395.806 454.248 400.808 441.727C405.7 428.616 408.878 416.128 410.34 404.263C411.802 392.397 411.385 380.27 409.089 367.881C405.153 346.643 393.744 329.536 374.863 316.559C356.572 303.473 334.743 299.281 309.375 303.983Z" fill="white"/>
<path d="M779.573 1166.73C811.43 1160.82 835.617 1148.1 852.133 1128.57C868.54 1108.44 874.229 1084.81 869.199 1057.67C864.607 1032.89 851.745 1014.53 830.614 1002.58C809.482 990.629 783.283 987.552 752.015 993.347C736.676 996.19 722.846 1000.58 710.523 1006.53C698.68 1011.78 689.602 1017.12 683.288 1022.56L647.254 936.791L740.608 763.884L551.233 798.982L527.943 673.322L872.181 609.522L889.074 700.669L797.719 869.545C815.375 869.324 833.872 871.998 853.21 877.567C873.139 883.027 891.954 892.354 909.655 905.55C927.837 918.045 943.779 934.923 957.483 956.181C971.776 977.331 981.875 1003.83 987.78 1035.69C993.247 1065.19 993.076 1093.9 987.268 1121.83C981.46 1149.75 970.331 1175.31 953.881 1198.5C938.021 1221.57 917.32 1241.58 891.779 1258.52C866.129 1274.87 836.49 1286.16 802.863 1292.39C778.085 1296.98 754.53 1298.3 732.198 1296.33C710.456 1294.26 690.451 1290.03 672.183 1283.66C654.505 1277.17 638.968 1269.07 625.572 1259.34C612.176 1249.62 601.97 1239 594.954 1227.49L605.132 1119.43C628.012 1140.81 653.394 1155.94 681.277 1164.81C709.641 1172.98 742.406 1173.62 779.573 1166.73Z" fill="white"/>
<path d="M959.362 367.701L1064.67 348.184L1126.34 680.917L1198.9 667.468L1222.19 793.128L1149.63 806.577L1182.43 983.563L1066.5 1005.05L1033.7 828.063L793.885 872.51L775.188 771.628L959.362 367.701ZM1010.41 702.403L981.053 544L899.795 722.904L1010.41 702.403Z" fill="white"/>
<path d="M1367.42 716.911C1396.92 711.444 1419.98 699.237 1436.61 680.29C1453.71 660.643 1459.75 637.251 1454.72 610.113C1452.1 595.954 1447.15 584.057 1439.87 574.422C1432.59 564.787 1423.87 557.25 1413.71 551.811C1403.55 546.372 1392.24 542.975 1379.79 541.623C1367.92 540.16 1355.79 540.577 1343.4 542.873C1325.71 546.154 1309.38 551.925 1294.44 560.186C1279.39 567.858 1267.18 577.748 1257.83 589.854L1174.09 582.492L1138.8 219.24L1452.07 161.18L1475.36 286.84L1255.01 327.679L1265.45 438.329C1275.19 431.642 1286.44 426.505 1299.2 422.92C1312.45 418.635 1323.2 415.727 1331.45 414.196C1360.36 408.839 1388.19 409.173 1414.94 415.2C1441.57 420.637 1465.49 431.154 1486.69 446.753C1508.36 461.652 1526.57 480.856 1541.3 504.365C1556.62 527.765 1567.07 554.508 1572.65 584.596C1578.55 616.453 1578.36 646.695 1572.07 675.32C1565.78 703.946 1554.41 729.851 1537.96 753.037C1521.99 775.524 1501.72 794.537 1477.14 810.077C1452.56 825.616 1424.93 836.229 1394.25 841.915C1368.29 846.726 1344.09 847.855 1321.65 845.301C1299.32 843.338 1279.32 839.113 1261.64 832.626C1243.85 825.549 1228.55 817.095 1215.75 807.264C1202.94 797.433 1193.73 787.241 1188.11 776.688L1198.13 667.739C1221.12 689.717 1246.85 705.086 1275.32 713.844C1304.27 721.902 1334.97 722.925 1367.42 716.911Z" fill="white"/>
</g>
<defs>
<clipPath id="clip0_554_745">
<rect width="1440" height="1153" fill="white"/>
</clipPath>
</defs>
</svg>
