<svg width="1440" height="876" viewBox="0 0 1440 876" fill="none" xmlns="http://www.w3.org/2000/svg">
<g clip-path="url(#clip0_760_2)">
<path d="M575 470.2L574.176 473.085L574.216 473.096L574.256 473.106L575 470.2ZM582.7 473.2L581.237 475.819L581.253 475.828L581.269 475.837L582.7 473.2ZM588.8 477.6L586.721 479.762L586.743 479.784L586.765 479.804L588.8 477.6ZM592.8 482.6L595.639 483.569L596.062 482.33L595.441 481.178L592.8 482.6ZM589.9 491.1L587.452 492.834L590.844 497.623L592.739 492.069L589.9 491.1ZM585.8 486.5L583.773 488.711L583.773 488.711L585.8 486.5ZM580.4 482.7L581.812 480.053L581.812 480.053L580.4 482.7ZM573.8 480.2L572.976 483.085L573.024 483.098L573.072 483.11L573.8 480.2ZM547.6 486.5L549.752 488.59L549.752 488.59L547.6 486.5ZM542.3 495L539.496 493.934L539.49 493.95L539.484 493.966L542.3 495ZM542.4 517.4L539.596 518.466L539.605 518.49L539.615 518.514L542.4 517.4ZM547.9 525.9L545.779 528.021L545.794 528.037L545.81 528.052L547.9 525.9ZM556.2 531.2L555.096 533.989L555.131 534.003L555.166 534.016L556.2 531.2ZM576.9 531.3L575.86 528.486L575.85 528.49L575.84 528.494L576.9 531.3ZM585 526.4L587.024 528.614L588 527.722V526.4H585ZM585 515.2H588V512.2H585V515.2ZM566.5 515.2H563.5V518.2H566.5V515.2ZM566.5 505.1V502.1H563.5V505.1H566.5ZM594.4 505.1H597.4V502.1H594.4V505.1ZM594.4 529.3L596.972 530.843L597.4 530.131V529.3H594.4ZM589.6 534.8L591.521 537.105L591.521 537.105L589.6 534.8ZM582.9 539.2L584.27 541.869L584.27 541.869L582.9 539.2ZM574.9 542.1L574.22 539.178L574.18 539.187L574.14 539.198L574.9 542.1ZM552.7 540.6L551.534 543.364L551.552 543.372L551.571 543.379L552.7 540.6ZM541.5 533.1L539.357 535.199L539.368 535.21L539.379 535.221L541.5 533.1ZM533.8 521.4L531.026 522.542L531.033 522.56L531.04 522.577L533.8 521.4ZM533.8 491L536.574 492.142L536.577 492.135L536.58 492.128L533.8 491ZM541.4 479.2L543.543 481.299L543.543 481.299L541.4 479.2ZM552.5 471.7L553.644 474.473L553.655 474.469L553.666 474.464L552.5 471.7ZM566 472C568.949 472 571.669 472.368 574.176 473.085L575.824 467.315C572.731 466.432 569.451 466 566 466V472ZM574.256 473.106C576.906 473.784 579.225 474.695 581.237 475.819L584.163 470.581C581.641 469.172 578.827 468.082 575.744 467.294L574.256 473.106ZM581.269 475.837C583.39 476.988 585.2 478.3 586.721 479.762L590.879 475.437C588.933 473.566 586.677 471.945 584.131 470.563L581.269 475.837ZM586.765 479.804C588.301 481.222 589.41 482.633 590.159 484.022L595.441 481.178C594.323 479.1 592.765 477.178 590.835 475.396L586.765 479.804ZM589.961 481.631L587.061 490.131L592.739 492.069L595.639 483.569L589.961 481.631ZM592.348 489.366C591.079 487.575 589.568 485.884 587.827 484.289L583.773 488.711C585.232 490.049 586.454 491.425 587.452 492.834L592.348 489.366ZM587.827 484.289C586.033 482.644 584.025 481.233 581.812 480.053L578.988 485.347C580.775 486.3 582.367 487.423 583.773 488.711L587.827 484.289ZM581.812 480.053C579.577 478.861 577.144 477.944 574.528 477.29L573.072 483.11C575.256 483.656 577.223 484.406 578.988 485.347L581.812 480.053ZM574.624 477.315C572.004 476.567 569.259 476.2 566.4 476.2V482.2C568.741 482.2 570.929 482.5 572.976 483.085L574.624 477.315ZM566.4 476.2C562.202 476.2 558.288 476.889 554.696 478.311L556.904 483.889C559.712 482.778 562.865 482.2 566.4 482.2V476.2ZM554.696 478.311C551.124 479.724 548.028 481.754 545.448 484.41L549.752 488.59C551.706 486.579 554.076 485.009 556.904 483.889L554.696 478.311ZM545.448 484.41C542.87 487.064 540.894 490.256 539.496 493.934L545.104 496.066C546.24 493.078 547.797 490.603 549.752 488.59L545.448 484.41ZM539.484 493.966C538.144 497.614 537.5 501.639 537.5 506H543.5C543.5 502.228 544.056 498.919 545.116 496.034L539.484 493.966ZM537.5 506C537.5 510.561 538.177 514.732 539.596 518.466L545.204 516.334C544.09 513.401 543.5 509.972 543.5 506H537.5ZM539.615 518.514C541.085 522.191 543.134 525.376 545.779 528.021L550.021 523.779C548 521.757 546.381 519.275 545.185 516.286L539.615 518.514ZM545.81 528.052C548.443 530.61 551.55 532.586 555.096 533.989L557.304 528.411C554.45 527.281 552.024 525.724 549.99 523.748L545.81 528.052ZM555.166 534.016C558.804 535.352 562.759 536 567 536V530C563.374 530 560.13 529.448 557.234 528.384L555.166 534.016ZM567 536C570.918 536 574.582 535.382 577.96 534.106L575.84 528.494C573.218 529.484 570.282 530 567 530V536ZM577.94 534.114C581.358 532.851 584.395 531.018 587.024 528.614L582.976 524.186C580.938 526.049 578.576 527.482 575.86 528.486L577.94 534.114ZM588 526.4V515.2H582V526.4H588ZM585 512.2H566.5V518.2H585V512.2ZM569.5 515.2V505.1H563.5V515.2H569.5ZM566.5 508.1H594.4V502.1H566.5V508.1ZM591.4 505.1V529.3H597.4V505.1H591.4ZM591.828 527.757C590.819 529.437 589.451 531.019 587.679 532.495L591.521 537.105C593.749 535.247 595.581 533.163 596.972 530.843L591.828 527.757ZM587.679 532.495C585.86 534.012 583.813 535.359 581.53 536.531L584.27 541.869C586.921 540.508 589.341 538.921 591.521 537.105L587.679 532.495ZM581.53 536.531C579.295 537.679 576.862 538.564 574.22 539.178L575.58 545.022C578.671 544.303 581.572 543.255 584.27 541.869L581.53 536.531ZM574.14 539.198C571.597 539.864 568.953 540.2 566.2 540.2V546.2C569.447 546.2 572.603 545.803 575.66 545.002L574.14 539.198ZM566.2 540.2C561.843 540.2 557.727 539.404 553.829 537.821L551.571 543.379C556.206 545.263 561.091 546.2 566.2 546.2V540.2ZM553.866 537.836C549.948 536.183 546.541 533.898 543.621 530.979L539.379 535.221C542.859 538.702 546.919 541.417 551.534 543.364L553.866 537.836ZM543.643 531.001C540.724 528.021 538.358 524.44 536.56 520.223L531.04 522.577C533.109 527.426 535.876 531.646 539.357 535.199L543.643 531.001ZM536.574 520.258C534.876 516.135 534 511.463 534 506.2H528C528 512.137 528.99 517.599 531.026 522.542L536.574 520.258ZM534 506.2C534 500.937 534.876 496.265 536.574 492.142L531.026 489.858C528.99 494.801 528 500.263 528 506.2H534ZM536.58 492.128C538.312 487.859 540.639 484.264 543.543 481.299L539.257 477.101C535.761 480.67 533.021 484.941 531.02 489.872L536.58 492.128ZM543.543 481.299C546.461 478.321 549.822 476.051 553.644 474.473L551.356 468.927C546.778 470.816 542.739 473.546 539.257 477.101L543.543 481.299ZM553.666 474.464C557.555 472.823 561.658 472 566 472V466C560.875 466 555.978 466.977 551.334 468.936L553.666 474.464ZM609.438 470.2V467.2H606.438V470.2H609.438ZM647.738 470.2H650.738V467.2H647.738V470.2ZM647.738 480.3V483.3H650.738V480.3H647.738ZM618.838 480.3V477.3H615.838V480.3H618.838ZM618.838 500H615.838V503H618.838V500ZM644.738 500H647.738V497H644.738V500ZM644.738 510.1V513.1H647.738V510.1H644.738ZM618.838 510.1V507.1H615.838V510.1H618.838ZM618.838 531.9H615.838V534.9H618.838V531.9ZM647.738 531.9H650.738V528.9H647.738V531.9ZM647.738 542V545H650.738V542H647.738ZM609.438 542H606.438V545H609.438V542ZM609.438 473.2H647.738V467.2H609.438V473.2ZM644.738 470.2V480.3H650.738V470.2H644.738ZM647.738 477.3H618.838V483.3H647.738V477.3ZM615.838 480.3V500H621.838V480.3H615.838ZM618.838 503H644.738V497H618.838V503ZM641.738 500V510.1H647.738V500H641.738ZM644.738 507.1H618.838V513.1H644.738V507.1ZM615.838 510.1V531.9H621.838V510.1H615.838ZM618.838 534.9H647.738V528.9H618.838V534.9ZM644.738 531.9V542H650.738V531.9H644.738ZM647.738 539H609.438V545H647.738V539ZM612.438 542V470.2H606.438V542H612.438ZM662.758 470.2V467.2H659.758V470.2H662.758ZM690.558 471.4L691.44 468.533L691.44 468.533L690.558 471.4ZM697.558 475.1L699.441 472.765L699.441 472.765L697.558 475.1ZM702.458 481.4L699.747 482.684L699.76 482.713L699.775 482.742L702.458 481.4ZM700.158 503.3L697.861 501.37L697.861 501.37L700.158 503.3ZM689.058 510L688.34 507.087L684.565 508.017L686.422 511.433L689.058 510ZM706.458 542V545H711.504L709.093 540.567L706.458 542ZM695.358 542L692.721 543.43L693.572 545H695.358V542ZM678.658 511.2L681.295 509.77L680.444 508.2H678.658V511.2ZM672.158 511.2V508.2H669.158V511.2H672.158ZM672.158 542V545H675.158V542H672.158ZM662.758 542H659.758V545H662.758V542ZM672.158 480.3V477.3H669.158V480.3H672.158ZM672.158 501.1H669.158V504.1H672.158V501.1ZM691.858 498.3L689.811 496.107L689.792 496.124L689.774 496.142L691.858 498.3ZM691.958 483.4L689.732 485.411L689.766 485.449L689.801 485.485L691.958 483.4ZM662.758 473.2H682.658V467.2H662.758V473.2ZM682.658 473.2C685.019 473.2 687.356 473.553 689.676 474.267L691.44 468.533C688.56 467.647 685.63 467.2 682.658 467.2V473.2ZM689.676 474.267C691.92 474.958 693.912 476.014 695.675 477.435L699.441 472.765C697.07 470.853 694.395 469.442 691.44 468.533L689.676 474.267ZM695.675 477.435C697.37 478.803 698.729 480.536 699.747 482.684L705.169 480.116C703.787 477.198 701.879 474.731 699.441 472.765L695.675 477.435ZM699.775 482.742C700.791 484.775 701.358 487.296 701.358 490.4H707.358C707.358 486.57 706.658 483.091 705.141 480.058L699.775 482.742ZM701.358 490.4C701.358 495.115 700.117 498.685 697.861 501.37L702.455 505.23C705.799 501.248 707.358 496.218 707.358 490.4H701.358ZM697.861 501.37C695.506 504.173 692.38 506.092 688.34 507.087L689.775 512.913C694.935 511.642 699.209 509.093 702.455 505.23L697.861 501.37ZM686.422 511.433L703.822 543.433L709.093 540.567L691.693 508.567L686.422 511.433ZM706.458 539H695.358V545H706.458V539ZM697.995 540.57L681.295 509.77L676.021 512.63L692.721 543.43L697.995 540.57ZM678.658 508.2H672.158V514.2H678.658V508.2ZM669.158 511.2V542H675.158V511.2H669.158ZM672.158 539H662.758V545H672.158V539ZM665.758 542V470.2H659.758V542H665.758ZM669.158 480.3V501.1H675.158V480.3H669.158ZM672.158 504.1H684.558V498.1H672.158V504.1ZM684.558 504.1C688.191 504.1 691.395 502.917 693.942 500.458L689.774 496.142C688.454 497.417 686.792 498.1 684.558 498.1V504.1ZM693.905 500.493C696.589 497.987 697.858 494.687 697.858 490.9H691.858C691.858 493.246 691.126 494.879 689.811 496.107L693.905 500.493ZM697.858 490.9C697.858 487.189 696.634 483.921 694.115 481.315L689.801 485.485C691.149 486.879 691.858 488.611 691.858 490.9H697.858ZM694.184 481.389C691.687 478.625 688.377 477.3 684.558 477.3V483.3C686.872 483.3 688.495 484.042 689.732 485.411L694.184 481.389ZM684.558 477.3H672.158V483.3H684.558V477.3ZM745.91 471.5L744.983 474.353L744.993 474.356L745.003 474.36L745.91 471.5ZM752.91 475.3L750.951 477.572L750.974 477.592L750.997 477.611L752.91 475.3ZM757.31 498.1L759.977 499.474L759.985 499.458L759.993 499.442L757.31 498.1ZM752.71 503.7L750.846 501.35L747.079 504.337L751.418 506.407L752.71 503.7ZM759.91 510.1L757.396 511.737L757.396 511.737L759.91 510.1ZM761.01 530L758.26 528.801L758.247 528.831L758.235 528.861L761.01 530ZM756.41 536.6L758.413 538.834L758.417 538.83L756.41 536.6ZM749.41 540.6L748.441 537.761L748.43 537.765L748.419 537.768L749.41 540.6ZM718.91 542H715.91V545H718.91V542ZM718.91 470.2V467.2H715.91V470.2H718.91ZM728.31 510.4V507.4H725.31V510.4H728.31ZM728.31 531.9H725.31V534.9H728.31V531.9ZM746.71 531.1L747.824 533.885L747.824 533.885L746.71 531.1ZM750.11 528.9L747.989 526.779L747.989 526.779L750.11 528.9ZM752.31 525.5L749.574 524.269L749.548 524.327L749.525 524.386L752.31 525.5ZM752.41 517.2L749.625 518.314L749.635 518.339L749.645 518.364L752.41 517.2ZM750.21 513.7L752.403 511.653L752.403 511.653L750.21 513.7ZM728.31 480.3V477.3H725.31V480.3H728.31ZM728.31 500.3H725.31V503.3H728.31V500.3ZM746.71 497.7L748.713 499.934L748.734 499.915L748.754 499.896L746.71 497.7ZM746.81 483.2L744.652 485.284L744.67 485.303L744.689 485.321L746.81 483.2ZM737.01 473.2C740.013 473.2 742.66 473.598 744.983 474.353L746.837 468.647C743.827 467.668 740.541 467.2 737.01 467.2V473.2ZM745.003 474.36C747.398 475.119 749.361 476.201 750.951 477.572L754.869 473.028C752.593 471.065 749.889 469.614 746.817 468.64L745.003 474.36ZM750.997 477.611C752.54 478.888 753.764 480.527 754.657 482.591L760.164 480.209C758.923 477.34 757.147 474.912 754.823 472.989L750.997 477.611ZM754.657 482.591C755.533 484.617 756.01 487.033 756.01 489.9H762.01C762.01 486.367 761.421 483.116 760.164 480.209L754.657 482.591ZM756.01 489.9C756.01 492.753 755.504 495.003 754.627 496.758L759.993 499.442C761.382 496.664 762.01 493.447 762.01 489.9H756.01ZM754.643 496.726C753.704 498.548 752.444 500.082 750.846 501.35L754.574 506.05C756.843 504.252 758.649 502.052 759.977 499.474L754.643 496.726ZM751.418 506.407C753.827 507.557 755.814 509.307 757.396 511.737L762.424 508.463C760.273 505.159 757.46 502.643 754.002 500.993L751.418 506.407ZM757.396 511.737C758.866 513.995 759.71 517.017 759.71 521H765.71C765.71 516.183 764.687 511.938 762.424 508.463L757.396 511.737ZM759.71 521C759.71 524.068 759.199 526.647 758.26 528.801L763.76 531.199C765.088 528.153 765.71 524.732 765.71 521H759.71ZM758.235 528.861C757.331 531.064 756.053 532.885 754.403 534.37L758.417 538.83C760.767 536.715 762.556 534.136 763.786 531.139L758.235 528.861ZM754.408 534.366C752.806 535.802 750.835 536.943 748.441 537.761L750.38 543.439C753.452 542.39 756.147 540.865 758.413 538.834L754.408 534.366ZM748.419 537.768C746.11 538.577 743.517 539 740.61 539V545C744.103 545 747.377 544.49 750.401 543.432L748.419 537.768ZM740.61 539H718.91V545H740.61V539ZM721.91 542V470.2H715.91V542H721.91ZM718.91 473.2H737.01V467.2H718.91V473.2ZM725.31 510.4V531.9H731.31V510.4H725.31ZM728.31 534.9H742.51V528.9H728.31V534.9ZM742.51 534.9C744.35 534.9 746.129 534.564 747.824 533.885L745.596 528.315C744.625 528.703 743.603 528.9 742.51 528.9V534.9ZM747.824 533.885C749.501 533.215 750.986 532.266 752.231 531.021L747.989 526.779C747.367 527.4 746.586 527.919 745.596 528.315L747.824 533.885ZM752.231 531.021C753.477 529.776 754.425 528.291 755.096 526.614L749.525 524.386C749.129 525.375 748.61 526.157 747.989 526.779L752.231 531.021ZM755.046 526.731C755.829 524.992 756.21 523.137 756.21 521.2H750.21C750.21 522.33 749.992 523.341 749.574 524.269L755.046 526.731ZM756.21 521.2C756.21 519.408 755.867 517.678 755.175 516.036L749.645 518.364C750.02 519.255 750.21 520.192 750.21 521.2H756.21ZM755.196 516.086C754.531 514.425 753.603 512.938 752.403 511.653L748.017 515.747C748.684 516.462 749.222 517.308 749.625 518.314L755.196 516.086ZM752.403 511.653C751.18 510.342 749.712 509.316 748.041 508.564L745.579 514.036C746.574 514.484 747.374 515.058 748.017 515.747L752.403 511.653ZM748.041 508.564C746.286 507.774 744.394 507.4 742.41 507.4V513.4C743.626 513.4 744.668 513.626 745.579 514.036L748.041 508.564ZM742.41 507.4H728.31V513.4H742.41V507.4ZM725.31 480.3V500.3H731.31V480.3H725.31ZM728.31 503.3H739.31V497.3H728.31V503.3ZM739.31 503.3C742.927 503.3 746.144 502.236 748.713 499.934L744.708 495.466C743.409 496.63 741.693 497.3 739.31 497.3V503.3ZM748.754 499.896C751.397 497.435 752.61 494.153 752.61 490.4H746.61C746.61 492.78 745.89 494.365 744.666 495.504L748.754 499.896ZM752.61 490.4C752.61 486.768 751.426 483.573 748.931 481.079L744.689 485.321C745.928 486.56 746.61 488.165 746.61 490.4H752.61ZM748.968 481.116C746.442 478.5 743.111 477.3 739.31 477.3V483.3C741.776 483.3 743.445 484.034 744.652 485.284L748.968 481.116ZM739.31 477.3H728.31V483.3H739.31V477.3ZM776.723 470.2V467.2H773.723V470.2H776.723ZM815.023 470.2H818.023V467.2H815.023V470.2ZM815.023 480.3V483.3H818.023V480.3H815.023ZM786.123 480.3V477.3H783.123V480.3H786.123ZM786.123 500H783.123V503H786.123V500ZM812.023 500H815.023V497H812.023V500ZM812.023 510.1V513.1H815.023V510.1H812.023ZM786.123 510.1V507.1H783.123V510.1H786.123ZM786.123 531.9H783.123V534.9H786.123V531.9ZM815.023 531.9H818.023V528.9H815.023V531.9ZM815.023 542V545H818.023V542H815.023ZM776.723 542H773.723V545H776.723V542ZM776.723 473.2H815.023V467.2H776.723V473.2ZM812.023 470.2V480.3H818.023V470.2H812.023ZM815.023 477.3H786.123V483.3H815.023V477.3ZM783.123 480.3V500H789.123V480.3H783.123ZM786.123 503H812.023V497H786.123V503ZM809.023 500V510.1H815.023V500H809.023ZM812.023 507.1H786.123V513.1H812.023V507.1ZM783.123 510.1V531.9H789.123V510.1H783.123ZM786.123 534.9H815.023V528.9H786.123V534.9ZM812.023 531.9V542H818.023V531.9H812.023ZM815.023 539H776.723V545H815.023V539ZM779.723 542V470.2H773.723V542H779.723ZM830.043 470.2V467.2H827.043V470.2H830.043ZM857.843 471.4L858.725 468.533L858.725 468.533L857.843 471.4ZM864.843 475.1L866.726 472.765L866.726 472.765L864.843 475.1ZM869.743 481.4L867.032 482.684L867.045 482.713L867.06 482.742L869.743 481.4ZM867.443 503.3L865.146 501.37L865.146 501.37L867.443 503.3ZM856.343 510L855.625 507.087L851.85 508.017L853.707 511.433L856.343 510ZM873.743 542V545H878.789L876.379 540.567L873.743 542ZM862.643 542L860.006 543.43L860.857 545H862.643V542ZM845.943 511.2L848.58 509.77L847.729 508.2H845.943V511.2ZM839.443 511.2V508.2H836.443V511.2H839.443ZM839.443 542V545H842.443V542H839.443ZM830.043 542H827.043V545H830.043V542ZM839.443 480.3V477.3H836.443V480.3H839.443ZM839.443 501.1H836.443V504.1H839.443V501.1ZM859.143 498.3L857.096 496.107L857.077 496.124L857.059 496.142L859.143 498.3ZM859.243 483.4L857.017 485.411L857.051 485.449L857.086 485.485L859.243 483.4ZM830.043 473.2H849.943V467.2H830.043V473.2ZM849.943 473.2C852.305 473.2 854.641 473.553 856.961 474.267L858.725 468.533C855.845 467.647 852.915 467.2 849.943 467.2V473.2ZM856.961 474.267C859.205 474.958 861.197 476.014 862.96 477.435L866.726 472.765C864.355 470.853 861.681 469.442 858.725 468.533L856.961 474.267ZM862.96 477.435C864.655 478.803 866.014 480.536 867.032 482.684L872.454 480.116C871.072 477.198 869.164 474.731 866.726 472.765L862.96 477.435ZM867.06 482.742C868.077 484.775 868.643 487.296 868.643 490.4H874.643C874.643 486.57 873.943 483.091 872.426 480.058L867.06 482.742ZM868.643 490.4C868.643 495.115 867.402 498.685 865.146 501.37L869.74 505.23C873.084 501.248 874.643 496.218 874.643 490.4H868.643ZM865.146 501.37C862.791 504.173 859.665 506.092 855.625 507.087L857.061 512.913C862.221 511.642 866.495 509.093 869.74 505.23L865.146 501.37ZM853.707 511.433L871.107 543.433L876.379 540.567L858.979 508.567L853.707 511.433ZM873.743 539H862.643V545H873.743V539ZM865.28 540.57L848.58 509.77L843.306 512.63L860.006 543.43L865.28 540.57ZM845.943 508.2H839.443V514.2H845.943V508.2ZM836.443 511.2V542H842.443V511.2H836.443ZM839.443 539H830.043V545H839.443V539ZM833.043 542V470.2H827.043V542H833.043ZM836.443 480.3V501.1H842.443V480.3H836.443ZM839.443 504.1H851.843V498.1H839.443V504.1ZM851.843 504.1C855.476 504.1 858.68 502.917 861.227 500.458L857.059 496.142C855.739 497.417 854.077 498.1 851.843 498.1V504.1ZM861.19 500.493C863.875 497.987 865.143 494.687 865.143 490.9H859.143C859.143 493.246 858.411 494.879 857.096 496.107L861.19 500.493ZM865.143 490.9C865.143 487.189 863.919 483.921 861.4 481.315L857.086 485.485C858.434 486.879 859.143 488.611 859.143 490.9H865.143ZM861.469 481.389C858.973 478.625 855.662 477.3 851.843 477.3V483.3C854.157 483.3 855.78 484.042 857.017 485.411L861.469 481.389ZM851.843 477.3H839.443V483.3H851.843V477.3ZM943.895 542V545H948.268L946.694 540.92L943.895 542ZM933.895 542L931.104 543.1L931.853 545H933.895V542ZM927.395 525.5L930.187 524.4L929.438 522.5H927.395V525.5ZM894.995 525.5V522.5H892.941L892.198 524.415L894.995 525.5ZM888.595 542V545H890.649L891.392 543.085L888.595 542ZM878.295 542L875.498 540.917L873.917 545H878.295V542ZM906.095 470.2V467.2H904.04L903.298 469.117L906.095 470.2ZM916.195 470.2L918.994 469.12L918.253 467.2H916.195V470.2ZM898.895 515.4L896.097 514.32L894.521 518.4H898.895V515.4ZM923.495 515.4V518.4H927.895L926.288 514.304L923.495 515.4ZM911.095 483.8L913.888 482.704L911.073 475.529L908.297 482.72L911.095 483.8ZM943.895 539H933.895V545H943.895V539ZM936.687 540.9L930.187 524.4L924.604 526.6L931.104 543.1L936.687 540.9ZM927.395 522.5H894.995V528.5H927.395V522.5ZM892.198 524.415L885.798 540.915L891.392 543.085L897.792 526.585L892.198 524.415ZM888.595 539H878.295V545H888.595V539ZM881.093 543.083L908.893 471.283L903.298 469.117L875.498 540.917L881.093 543.083ZM906.095 473.2H916.195V467.2H906.095V473.2ZM913.396 471.28L941.096 543.08L946.694 540.92L918.994 469.12L913.396 471.28ZM898.895 518.4H923.495V512.4H898.895V518.4ZM926.288 514.304L913.888 482.704L908.303 484.896L920.703 516.496L926.288 514.304ZM908.297 482.72L896.097 514.32L901.694 516.48L913.894 484.88L908.297 482.72Z" fill="black"/>
</g>
<defs>
<clipPath id="clip0_760_2">
<rect width="1440" height="876" fill="white"/>
</clipPath>
</defs>
</svg>
