<svg width="1440" height="1225" viewBox="0 0 1440 1225" fill="none" xmlns="http://www.w3.org/2000/svg">
<g clip-path="url(#clip0_636_63108)">
<rect width="1440" height="1225" fill="white"/>
<path d="M-53 -3H1311.78L1337.43 465.818L1590 827.526L1289.02 1225H-53V-3Z" fill="#FF007A"/>
<path d="M1287.74 948.19C1341.82 948.19 1385.2 935.233 1417.87 909.32C1451.67 883.407 1468.57 848.48 1468.57 804.54C1468.57 765.107 1453.36 734.123 1422.94 711.59C1393.65 687.93 1353.65 676.1 1302.95 676.1C1268.02 676.1 1237.6 680.043 1211.69 687.93C1186.9 695.817 1168.31 704.267 1155.92 713.28L1113.67 524L1321.54 263.74H986.92V-13.4201H1664.61V184.31L1458.43 437.81C1487.72 444.57 1518.14 456.4 1549.69 473.3C1582.36 489.073 1612.22 511.607 1639.26 540.9C1666.3 569.067 1688.27 605.12 1705.17 649.06C1723.2 693 1732.21 745.953 1732.21 807.92C1732.21 865.38 1721.51 919.46 1700.1 970.16C1679.82 1020.86 1649.96 1065.36 1610.53 1103.67C1572.22 1140.85 1525.47 1170.71 1470.26 1193.24C1416.18 1214.65 1355.34 1225.35 1287.74 1225.35C1237.04 1225.35 1191.41 1219.72 1150.85 1208.45C1110.29 1197.18 1074.8 1182.54 1044.38 1164.51C1013.96 1145.36 988.61 1124.51 968.33 1101.98C948.05 1079.45 933.403 1056.35 924.39 1032.69L985.23 809.61C1017.9 849.043 1057.9 882.28 1105.22 909.32C1152.54 935.233 1213.38 948.19 1287.74 948.19Z" fill="white"/>
</g>
<defs>
<clipPath id="clip0_636_63108">
<rect width="1440" height="1225" fill="white"/>
</clipPath>
</defs>
</svg>
