<svg width="1440" height="1195" viewBox="0 0 1440 1195" fill="none" xmlns="http://www.w3.org/2000/svg">
<g clip-path="url(#clip0_639_63475)">
<rect width="1440" height="1195" fill="white"/>
<path d="M-7 -9H515.912L216.38 685.104L701.517 902.826L720 1215H-7V-9Z" fill="#56FF53"/>
<path d="M508.79 -8.42009H752.15V608.43H887.35V885.59H752.15V1205H496.96V885.59H45.73V667.58L508.79 -8.42009ZM505.41 625.33V356.62L321.2 625.33H505.41Z" fill="white"/>
<path d="M1372.15 983.894C1362.51 994.808 1348.65 1002.97 1330.56 1008.37C1312.75 1013.18 1293.02 1010.41 1271.36 1000.08C1248.49 989.175 1232.81 971.724 1224.32 947.728C1215.5 922.844 1217.12 897.765 1229.18 872.493C1234.92 860.459 1242.64 850.475 1252.33 842.541C1262.02 834.608 1272.8 829.04 1284.67 825.838C1295.94 822.348 1307.85 821.381 1320.4 822.937C1332.64 823.604 1344.47 826.664 1355.91 832.117C1375.16 841.302 1391.48 852.777 1404.85 866.543C1418.23 880.31 1430.3 896.039 1441.07 913.73L1509.66 1018.46L1470.05 1101.5L1372.15 983.894ZM1002.32 844.058C977.724 852.269 953.391 850.634 929.322 839.153C905.253 827.673 888.669 809.791 879.57 785.509C870.758 760.624 872.092 736.147 883.572 712.079C895.052 688.01 913.235 671.569 938.119 662.757C963.004 653.945 987.48 655.279 1011.55 666.759C1035.62 678.24 1052.06 696.422 1060.87 721.307C1069.08 745.904 1067.45 770.237 1055.97 794.306C1044.49 818.375 1026.6 834.959 1002.32 844.058Z" fill="#56FF53"/>
<path d="M1175.57 877.75L1180.18 873.912L1175.71 868.534L1171.08 873.779L1175.57 877.75ZM1154.78 889.99L1156.34 895.783L1156.42 895.762L1156.5 895.739L1154.78 889.99ZM1101.66 859.667L1107.31 857.665L1107.31 857.665L1101.66 859.667ZM1115.66 807.074L1119.46 811.717L1119.46 811.717L1115.66 807.074ZM1131.84 798.722L1133.4 804.515L1133.5 804.486L1133.61 804.453L1131.84 798.722ZM1149.7 797.272L1148.96 803.226L1149.17 803.252L1149.37 803.263L1149.7 797.272ZM1191.93 819.075L1187.62 823.256L1187.62 823.256L1191.93 819.075ZM1210.03 842.668L1204.91 845.787L1204.96 845.872L1205.01 845.956L1210.03 842.668ZM1244.33 895.035L1249.75 897.618L1251.2 894.571L1249.35 891.747L1244.33 895.035ZM1224.53 936.554L1219.92 940.392L1225.91 947.592L1229.94 939.137L1224.53 936.554ZM990.661 807.832L992.56 813.524L992.664 813.489L992.766 813.451L990.661 807.832ZM929.285 778.558L923.629 780.56L923.647 780.612L923.666 780.663L929.285 778.558ZM958.56 717.182L956.557 711.526L956.557 711.526L958.56 717.182ZM1019.94 746.457L1025.63 744.557L1025.61 744.505L1025.59 744.454L1019.94 746.457ZM1171.08 873.779C1167.19 878.18 1161.34 881.766 1153.06 884.241L1156.5 895.739C1166.3 892.809 1174.32 888.235 1180.07 881.722L1171.08 873.779ZM1153.22 884.197C1146.07 886.126 1137.7 885.167 1127.76 880.428L1122.6 891.259C1134.32 896.853 1145.68 898.659 1156.34 895.783L1153.22 884.197ZM1127.76 880.428C1117.77 875.664 1111.03 868.171 1107.31 857.665L1096 861.67C1100.78 875.16 1109.72 885.117 1122.6 891.259L1127.76 880.428ZM1107.31 857.665C1103.47 846.82 1104.12 835.929 1109.51 824.633L1098.67 819.467C1092.01 833.442 1091.03 847.63 1096 861.67L1107.31 857.665ZM1109.51 824.633C1112.02 819.36 1115.35 815.089 1119.46 811.717L1111.86 802.431C1106.29 806.993 1101.9 812.705 1098.67 819.467L1109.51 824.633ZM1119.46 811.717C1123.67 808.277 1128.3 805.891 1133.4 804.515L1130.27 792.929C1123.5 794.756 1117.35 797.938 1111.86 802.431L1119.46 811.717ZM1133.61 804.453C1138.37 802.978 1143.47 802.545 1148.96 803.226L1150.44 791.317C1143.38 790.442 1136.56 790.976 1130.06 792.991L1133.61 804.453ZM1149.37 803.263C1154.68 803.552 1159.84 804.877 1164.87 807.277L1170.04 796.446C1163.64 793.394 1156.95 791.658 1150.03 791.281L1149.37 803.263ZM1164.87 807.277C1173.93 811.597 1181.48 816.937 1187.62 823.256L1196.23 814.894C1188.99 807.447 1180.23 801.311 1170.04 796.446L1164.87 807.277ZM1187.62 823.256C1193.98 829.793 1199.74 837.295 1204.91 845.787L1215.16 839.549C1209.56 830.35 1203.25 822.123 1196.23 814.894L1187.62 823.256ZM1205.01 845.956L1239.31 898.322L1249.35 891.747L1215.05 839.381L1205.01 845.956ZM1238.91 892.452L1219.11 933.971L1229.94 939.137L1249.75 897.618L1238.91 892.452ZM1229.14 932.715L1180.18 873.912L1170.96 881.589L1219.92 940.392L1229.14 932.715ZM988.761 802.141C977.982 805.739 967.42 805.057 956.744 799.964L951.578 810.795C964.97 817.183 978.742 818.136 992.56 813.524L988.761 802.141ZM956.744 799.964C946.067 794.872 938.891 787.094 934.903 776.452L923.666 780.663C928.778 794.304 938.185 804.407 951.578 810.795L956.744 799.964ZM934.941 776.555C931.072 765.63 931.639 755.04 936.702 744.426L925.871 739.259C919.453 752.714 918.686 766.601 923.629 780.56L934.941 776.555ZM936.702 744.426C941.764 733.811 949.637 726.706 960.562 722.838L956.557 711.526C942.597 716.469 932.288 725.805 925.871 739.259L936.702 744.426ZM960.562 722.838C971.488 718.969 982.077 719.536 992.692 724.598L997.858 713.767C984.403 707.35 970.516 706.583 956.557 711.526L960.562 722.838ZM992.692 724.598C1003.31 729.661 1010.41 737.534 1014.28 748.459L1025.59 744.454C1020.65 730.494 1011.31 720.185 997.858 713.767L992.692 724.598ZM1014.24 748.356C1017.84 759.135 1017.16 769.697 1012.07 780.373L1022.9 785.539C1029.29 772.147 1030.24 758.375 1025.63 744.557L1014.24 748.356ZM1012.07 780.373C1006.97 791.05 999.197 798.226 988.555 802.214L992.766 813.451C1006.41 808.339 1016.51 798.932 1022.9 785.539L1012.07 780.373Z" fill="black"/>
<path d="M1338.95 529.795C1349.45 517.719 1358.21 504.584 1365.25 490.387C1372.3 476.191 1377.93 462.093 1382.14 448.094C1386.8 433.591 1389.61 419.691 1390.57 406.392C1391.53 393.094 1391.4 381.053 1390.17 370.27L1459.5 398.737C1464.55 410.197 1467.39 423.703 1468 439.254C1469.06 454.303 1467.86 470.926 1464.4 489.125C1460.88 506.383 1454.58 524.308 1445.48 542.901C1436.38 561.495 1424.18 579.596 1408.87 597.206C1384.38 625.382 1357.11 647.609 1327.06 663.887C1296.94 679.224 1265.93 688.481 1234.02 691.658C1202.04 693.894 1169.6 689.546 1136.7 678.615C1103.74 666.744 1072.16 647.687 1041.98 621.444C1015.81 598.701 994.625 572.774 978.413 543.665C961.698 514.117 951.281 483.421 947.164 451.575C943.047 419.729 945.547 387.893 954.662 356.067C963.275 323.803 980.047 293.332 1004.98 264.653C1028.59 237.484 1055.09 217.674 1084.46 205.224C1113.84 192.773 1144.14 186.874 1175.37 187.525C1206.54 187.236 1237.7 193.563 1268.85 206.507C1299.5 219.013 1328.15 236.856 1354.82 260.037C1362.87 267.035 1370.77 275.225 1378.51 284.607L1127.9 572.906C1164.16 598.251 1200.66 606.568 1237.38 597.857C1273.6 588.708 1307.46 566.021 1338.95 529.795ZM1247.41 295.193C1235.46 286.577 1222.31 280.881 1207.94 278.105C1193.06 274.893 1177.95 275.004 1162.59 278.441C1147.17 280.937 1132.2 286.473 1117.68 295.049C1103.16 303.626 1089.99 314.706 1078.18 328.291C1066.37 341.876 1056.8 356.958 1049.45 373.539C1042.54 389.616 1038.23 405.748 1036.53 421.934C1035.27 437.617 1036.82 453.103 1041.2 468.391C1045.07 483.242 1052.14 496.452 1062.4 508.021L1247.41 295.193ZM788.705 293.953C774.617 281.707 766.948 266.649 765.699 248.779C764.383 229.969 769.63 213.771 781.439 200.186C793.686 186.098 808.995 178.648 827.368 177.836C845.675 176.083 861.873 181.33 875.961 193.577C889.546 205.386 896.996 220.695 898.311 239.506C899.561 257.375 894.062 273.354 881.816 287.442C870.007 301.027 854.949 308.696 836.641 310.448C818.269 311.261 802.29 305.762 788.705 293.953ZM917.949 145.275C903.861 133.029 896.192 117.971 894.942 100.101C893.627 81.2907 898.874 65.0932 910.683 51.5084C922.929 37.4205 938.239 29.9705 956.612 29.1583C974.919 27.4056 991.117 32.6524 1005.2 44.8989C1018.79 56.7079 1026.24 72.0176 1027.55 90.8278C1028.8 108.698 1023.31 124.676 1011.06 138.764C999.25 152.349 984.192 160.018 965.885 161.771C947.512 162.583 931.533 157.084 917.949 145.275Z" fill="#56FF53"/>
<path d="M1138.63 504.071L1134.15 501.849L1134.15 501.849L1138.63 504.071ZM1147.07 482.924L1142.31 481.396L1142.3 481.438L1142.29 481.481L1147.07 482.924ZM1151.28 462.074L1156.27 462.434L1156.27 462.434L1151.28 462.074ZM1151.09 444.012L1152.98 439.387L1145.16 436.175L1146.12 444.577L1151.09 444.012ZM1185.75 458.246L1190.32 456.228L1189.51 454.386L1187.65 453.621L1185.75 458.246ZM1190 478.505L1185.01 478.702L1185.01 478.778L1185.01 478.853L1190 478.505ZM1188.2 503.44L1193.1 504.439L1193.11 504.405L1193.11 504.372L1188.2 503.44ZM1178.74 530.328L1183.23 532.525L1183.23 532.525L1178.74 530.328ZM1119.53 590.821L1121.8 595.276L1121.86 595.248L1121.91 595.217L1119.53 590.821ZM1073.01 604.706L1073.36 609.694L1073.43 609.689L1073.5 609.682L1073.01 604.706ZM1024.35 598.185L1022.66 602.889L1022.72 602.91L1022.78 602.93L1024.35 598.185ZM945.207 530.71L949.575 528.277L949.567 528.262L949.558 528.248L945.207 530.71ZM929.582 484.665L934.541 484.024L934.541 484.024L929.582 484.665ZM933.331 436.911L938.138 438.288L938.15 438.244L938.162 438.2L933.331 436.911ZM998.232 361.489L1000.18 366.093L1000.18 366.093L998.232 361.489ZM1043.69 352.64L1043.58 357.639L1043.66 357.64L1043.73 357.64L1043.69 352.64ZM1090.42 362.131L1088.51 366.748L1088.52 366.754L1088.54 366.76L1090.42 362.131ZM1145.25 401.181L1149.03 404.461L1151.81 401.265L1149.11 397.998L1145.25 401.181ZM1019.95 545.331L1016.17 542.05L1012.53 546.245L1017.08 549.429L1019.95 545.331ZM1074.69 557.806L1075.85 562.671L1075.88 562.662L1075.92 562.654L1074.69 557.806ZM1079.7 406.474L1083.48 409.754L1087.07 405.622L1082.63 402.419L1079.7 406.474ZM1059.97 397.93L1058.91 402.817L1058.97 402.829L1059.02 402.839L1059.97 397.93ZM1037.3 398.098L1038.1 403.034L1038.24 403.01L1038.39 402.977L1037.3 398.098ZM1014.84 406.402L1017.38 410.707L1017.38 410.707L1014.84 406.402ZM980.725 445.647L976.154 443.621L976.142 443.647L976.131 443.673L980.725 445.647ZM974.266 469.845L969.293 469.321L969.287 469.382L969.282 469.442L974.266 469.845ZM976.599 493.073L981.437 491.811L981.422 491.754L981.406 491.697L976.599 493.073ZM987.199 512.888L983.458 516.205L987.237 520.466L990.973 516.168L987.199 512.888ZM838.849 383.267L843.837 382.918L843.837 382.918L838.849 383.267ZM869.684 347.795L869.905 352.791L870.033 352.785L870.161 352.773L869.684 347.795ZM905.155 378.63L900.168 378.979L900.168 378.979L905.155 378.63ZM874.321 414.102L874.542 419.097L874.67 419.091L874.797 419.079L874.321 414.102ZM903.471 308.928L908.459 308.579L908.459 308.579L903.471 308.928ZM934.306 273.457L934.527 278.452L934.655 278.446L934.782 278.434L934.306 273.457ZM969.777 304.291L964.789 304.64L964.789 304.64L969.777 304.291ZM938.943 339.763L939.163 344.758L939.291 344.752L939.419 344.74L938.943 339.763ZM1129.25 527.055C1134.77 520.699 1139.4 513.776 1143.11 506.293L1134.15 501.849C1130.82 508.562 1126.67 514.775 1121.7 520.495L1129.25 527.055ZM1143.11 506.293C1146.74 498.964 1149.66 491.656 1151.86 484.367L1142.29 481.481C1140.26 488.192 1137.55 494.981 1134.15 501.849L1143.11 506.293ZM1151.83 484.453C1154.27 476.875 1155.76 469.532 1156.27 462.434L1146.3 461.713C1145.85 467.914 1144.54 474.471 1142.31 481.396L1151.83 484.453ZM1156.27 462.434C1156.77 455.543 1156.71 449.206 1156.05 443.447L1146.12 444.577C1146.69 449.602 1146.76 455.305 1146.3 461.713L1156.27 462.434ZM1149.19 448.638L1183.85 462.871L1187.65 453.621L1152.98 439.387L1149.19 448.638ZM1181.18 460.263C1183.4 465.298 1184.72 471.407 1185.01 478.702L1195 478.307C1194.67 470.051 1193.16 462.654 1190.32 456.228L1181.18 460.263ZM1185.01 478.853C1185.5 485.865 1184.95 493.738 1183.29 502.508L1193.11 504.372C1194.9 494.942 1195.55 486.193 1194.99 478.156L1185.01 478.853ZM1183.3 502.441C1181.64 510.59 1178.64 519.15 1174.25 528.131L1183.23 532.525C1187.93 522.913 1191.24 513.548 1193.1 504.439L1183.3 502.441ZM1174.25 528.131C1169.91 536.991 1164.07 545.683 1156.66 554.2L1164.21 560.761C1172.11 551.669 1178.47 542.259 1183.23 532.525L1174.25 528.131ZM1156.66 554.2C1144.77 567.877 1131.6 578.596 1117.15 586.424L1121.91 595.217C1137.51 586.767 1151.61 575.259 1164.21 560.761L1156.66 554.2ZM1117.26 586.365C1102.73 593.767 1087.82 598.208 1072.51 599.731L1073.5 609.682C1090.11 608.029 1106.22 603.212 1121.8 595.276L1117.26 586.365ZM1072.66 599.719C1057.37 600.787 1041.81 598.717 1025.93 593.44L1022.78 602.93C1039.79 608.585 1056.67 610.861 1073.36 609.694L1072.66 599.719ZM1026.05 593.481C1010.22 587.782 994.961 578.599 980.268 565.826L973.708 573.373C989.203 586.843 1005.52 596.717 1022.66 602.889L1026.05 593.481ZM980.268 565.826C967.607 554.819 957.387 542.305 949.575 528.277L940.838 533.143C949.238 548.224 960.206 561.637 973.708 573.373L980.268 565.826ZM949.558 528.248C941.5 514.004 936.512 499.27 934.541 484.024L924.623 485.306C926.769 501.905 932.197 517.869 940.855 533.172L949.558 528.248ZM934.541 484.024C932.572 468.798 933.762 453.566 938.138 438.288L928.524 435.534C923.785 452.082 922.475 468.686 924.623 485.306L934.541 484.024ZM938.162 438.2C942.247 422.9 950.227 408.329 962.262 394.484L954.715 387.924C941.82 402.758 933.029 418.659 928.5 435.621L938.162 438.2ZM962.262 394.484C973.637 381.399 986.282 371.985 1000.18 366.093L996.28 356.886C980.809 363.444 966.958 373.839 954.715 387.924L962.262 394.484ZM1000.18 366.093C1014.23 360.137 1028.69 357.328 1043.58 357.639L1043.79 347.641C1027.45 347.3 1011.6 350.391 996.28 356.886L1000.18 366.093ZM1043.73 357.64C1058.59 357.502 1073.5 360.513 1088.51 366.748L1092.34 357.514C1076.2 350.805 1059.95 347.489 1043.64 347.64L1043.73 357.64ZM1088.54 366.76C1103.32 372.793 1117.18 381.414 1130.13 392.67L1136.69 385.123C1122.97 373.197 1108.18 363.975 1092.31 357.501L1088.54 366.76ZM1130.13 392.67C1133.92 395.965 1137.68 399.856 1141.4 404.364L1149.11 397.998C1145.09 393.124 1140.95 388.825 1136.69 385.123L1130.13 392.67ZM1141.48 397.901L1016.17 542.05L1023.72 548.611L1149.03 404.461L1141.48 397.901ZM1017.08 549.429C1036.17 562.764 1055.85 567.413 1075.85 562.671L1073.54 552.941C1056.81 556.91 1040 553.242 1022.81 541.232L1017.08 549.429ZM1075.92 562.654C1095.26 557.767 1113.02 545.72 1129.25 527.055L1121.7 520.495C1106.43 538.056 1090.34 548.696 1073.47 552.958L1075.92 562.654ZM1082.63 402.419C1076.07 397.689 1068.82 394.547 1060.92 393.021L1059.02 402.839C1065.49 404.089 1071.39 406.643 1076.78 410.529L1082.63 402.419ZM1061.02 393.043C1052.85 391.278 1044.56 391.348 1036.2 393.219L1038.39 402.977C1045.38 401.412 1052.21 401.369 1058.91 402.817L1061.02 393.043ZM1036.5 393.162C1028.12 394.517 1020.05 397.517 1012.3 402.097L1017.38 410.707C1024.15 406.711 1031.05 404.174 1038.1 403.034L1036.5 393.162ZM1012.3 402.097C1004.54 406.676 997.552 412.572 991.318 419.743L998.865 426.303C1004.44 419.889 1010.61 414.704 1017.38 410.707L1012.3 402.097ZM991.318 419.743C985.084 426.914 980.027 434.879 976.154 443.621L985.296 447.672C988.769 439.834 993.29 432.717 998.865 426.303L991.318 419.743ZM976.131 443.673C972.493 452.139 970.201 460.692 969.293 469.321L979.238 470.368C980.033 462.811 982.048 455.233 985.319 447.621L976.131 443.673ZM969.282 469.442C968.6 477.889 969.44 486.234 971.792 494.449L981.406 491.697C979.381 484.624 978.665 477.483 979.249 470.247L969.282 469.442ZM971.761 494.335C973.898 502.528 977.81 509.836 983.458 516.205L990.94 509.57C986.328 504.37 983.173 498.468 981.437 491.811L971.761 494.335ZM990.973 516.168L1083.48 409.754L1075.93 403.193L983.426 509.608L990.973 516.168ZM853.633 402.08C847.543 396.786 844.365 390.469 843.837 382.918L833.862 383.616C834.583 393.934 839.074 402.675 847.072 409.627L853.633 402.08ZM843.837 382.918C843.267 374.766 845.504 367.991 850.493 362.251L842.946 355.69C836.127 363.535 833.116 372.958 833.862 383.616L843.837 382.918ZM850.493 362.251C855.733 356.224 862.111 353.135 869.905 352.791L869.463 342.8C858.885 343.268 849.953 347.629 842.946 355.69L850.493 362.251ZM870.161 352.773C877.927 352.029 884.673 354.2 890.7 359.439L897.261 351.892C889.2 344.885 879.748 341.809 869.208 342.818L870.161 352.773ZM890.7 359.439C896.44 364.429 899.598 370.827 900.168 378.979L910.143 378.281C909.398 367.624 905.106 358.712 897.261 351.892L890.7 359.439ZM900.168 378.979C900.696 386.53 898.428 393.228 893.134 399.318L900.681 405.879C907.634 397.881 910.865 388.6 910.143 378.281L900.168 378.979ZM893.134 399.318C888.091 405.12 881.753 408.367 873.844 409.124L874.797 419.079C885.196 418.083 893.916 413.662 900.681 405.879L893.134 399.318ZM874.1 409.106C866.163 409.457 859.435 407.124 853.633 402.08L847.072 409.627C854.855 416.393 864.106 419.558 874.542 419.097L874.1 409.106ZM918.255 327.742C912.165 322.447 908.987 316.13 908.459 308.579L898.483 309.277C899.205 319.595 903.696 328.336 911.694 335.289L918.255 327.742ZM908.459 308.579C907.889 300.427 910.125 293.652 915.115 287.912L907.568 281.351C900.748 289.196 897.738 298.619 898.483 309.277L908.459 308.579ZM915.115 287.912C920.354 281.885 926.733 278.796 934.527 278.452L934.085 268.461C923.506 268.929 914.575 273.291 907.568 281.351L915.115 287.912ZM934.782 278.434C942.549 277.69 949.295 279.861 955.322 285.1L961.883 277.553C953.822 270.546 944.37 267.47 933.829 268.479L934.782 278.434ZM955.322 285.1C961.062 290.09 964.219 296.488 964.789 304.64L974.765 303.943C974.02 293.285 969.728 284.373 961.883 277.553L955.322 285.1ZM964.789 304.64C965.318 312.191 963.05 318.889 957.756 324.979L965.303 331.54C972.256 323.542 975.487 314.261 974.765 303.943L964.789 304.64ZM957.756 324.979C952.713 330.781 946.374 334.028 938.466 334.785L939.419 344.74C949.818 343.744 958.538 339.323 965.303 331.54L957.756 324.979ZM938.722 334.768C930.785 335.118 924.057 332.785 918.255 327.742L911.694 335.289C919.477 342.054 928.727 345.219 939.163 344.758L938.722 334.768Z" fill="black"/>
</g>
<defs>
<clipPath id="clip0_639_63475">
<rect width="1440" height="1195" fill="white"/>
</clipPath>
</defs>
</svg>
