<svg width="1440" height="1193" viewBox="0 0 1440 1193" fill="none" xmlns="http://www.w3.org/2000/svg">
<g clip-path="url(#clip0_675_457)">
<rect width="1440" height="1193" fill="white"/>
<path d="M-89 -15H1260L1283 523L2030.5 1175.5L1029 1193H-89V-15Z" fill="#FFE500"/>
<path d="M1511.02 805.99C1511.02 784.583 1506.51 765.993 1497.5 750.22C1488.49 733.32 1476.66 719.237 1462.01 707.97C1448.49 696.703 1432.15 688.817 1413 684.31C1394.97 678.677 1376.38 675.86 1357.23 675.86C1324.56 675.86 1293.01 680.367 1262.59 689.38C1233.3 698.393 1209.07 712.477 1189.92 731.63L1024.3 680.93L1085.14 -20.4201H1700.3V256.74H1293.01L1277.8 403.77C1285.69 401.517 1294.7 399.827 1304.84 398.7C1316.11 397.573 1326.81 397.01 1336.95 397.01C1347.09 395.883 1356.1 395.32 1363.99 395.32H1379.2C1436.66 395.32 1489.05 405.46 1536.37 425.74C1584.82 446.02 1626.5 474.187 1661.43 510.24C1697.48 545.167 1725.09 587.417 1744.24 636.99C1764.52 686.563 1774.66 740.643 1774.66 799.23C1774.66 863.45 1762.83 921.473 1739.17 973.3C1716.64 1025.13 1685.65 1069.07 1646.22 1105.12C1607.91 1141.17 1562.85 1169.34 1511.02 1189.62C1460.32 1208.77 1406.24 1218.35 1348.78 1218.35C1294.7 1218.35 1246.25 1212.15 1203.44 1199.76C1161.75 1187.37 1125.7 1172.16 1095.28 1154.13C1064.86 1134.98 1040.07 1114.13 1020.92 1091.6C1002.89 1067.94 991.063 1045.97 985.43 1025.69L1046.27 802.61C1081.2 846.55 1122.88 880.913 1171.33 905.7C1220.9 929.36 1275.55 941.19 1335.26 941.19C1382.58 941.19 1423.7 929.36 1458.63 905.7C1493.56 882.04 1511.02 848.803 1511.02 805.99Z" fill="white"/>
<path d="M573.4 312.4C591 352.4 599.8 396.4 599.8 444.4C599.8 492.4 591 536.4 573.4 576.4C556.6 616.4 533.8 650.8 505 679.6C476.2 708.4 443 730.8 405.4 746.8C367.8 762.8 328.6 770.8 287.8 770.8C242.2 770.8 203 763.2 170.2 748C138.2 732 117 712.4 106.6 689.2V1009.6H-45.8V136H101.8V200.8C112.2 177.6 133.8 158.4 166.6 143.2C200.2 127.2 239.8 119.2 285.4 119.2C327 119.2 366.6 127.2 404.2 143.2C442.6 158.4 476.2 180.4 505 209.2C533.8 238 556.6 272.4 573.4 312.4ZM433 511.6C441.8 490.8 446.2 468.4 446.2 444.4C446.2 420.4 441.8 398.4 433 378.4C424.2 358.4 411.8 341.2 395.8 326.8C380.6 312.4 361.8 301.2 339.4 293.2C317.8 285.2 293.8 281.2 267.4 281.2C229 281.2 195 289.2 165.4 305.2C135.8 320.4 116.2 339.6 106.6 362.8V527.2C116.2 550.4 135.8 570 165.4 586C195 601.2 229 608.8 267.4 608.8C293.8 608.8 317.8 604.8 339.4 596.8C361.8 588.8 380.6 577.6 395.8 563.2C411.8 548.8 424.2 531.6 433 511.6Z" fill="#363EFF"/>
<path d="M618 483L606.936 487.647L606.975 487.74L607.016 487.833L618 483ZM618 593L607.016 588.167L606.975 588.26L606.936 588.353L618 593ZM450 664.5L444.633 675.233L444.793 675.313L444.954 675.388L450 664.5ZM423.5 640L434.45 635.091L411.5 640H423.5ZM423.5 773.5V785.5H435.5V773.5H423.5ZM360 773.5H348V785.5H360V773.5ZM360 409.5V397.5H348V409.5H360ZM421.5 409.5H433.5V397.5H421.5V409.5ZM421.5 436.5H409.5L432.45 441.409L421.5 436.5ZM448.5 412.5L453.546 423.388L453.603 423.361L453.659 423.334L448.5 412.5ZM547.5 412.5L542.801 423.542L542.942 423.602L543.083 423.658L547.5 412.5ZM589.5 440L597.985 431.515L597.985 431.515L589.5 440ZM559.5 566L570.484 570.833L570.518 570.755L570.552 570.676L559.5 566ZM544 489L535.747 497.711L535.858 497.817L535.972 497.92L544 489ZM520.5 475L516.332 486.253L516.398 486.277L516.464 486.301L520.5 475ZM448 480L453.482 490.675L453.595 490.617L453.706 490.556L448 480ZM423.5 504L412.412 499.412L411.5 501.615V504H423.5ZM423.5 572.5H411.5V574.885L412.412 577.088L423.5 572.5ZM448 597L442.294 607.556L442.405 607.617L442.518 607.675L448 597ZM520.5 601.5L516.464 590.199L516.398 590.223L516.332 590.247L520.5 601.5ZM544 587.5L535.972 578.58L535.858 578.683L535.747 578.789L544 587.5ZM607.016 487.833C613.616 502.832 617 519.499 617 538H641C641 516.501 637.051 496.501 628.984 478.167L607.016 487.833ZM617 538C617 556.501 613.616 573.168 607.016 588.167L628.984 597.833C637.051 579.499 641 559.499 641 538H617ZM606.936 588.353C600.499 603.68 591.844 616.685 581.015 627.515L597.985 644.485C611.156 631.315 621.501 615.653 629.064 597.647L606.936 588.353ZM581.015 627.515C570.105 638.424 557.558 646.891 543.301 652.958L552.699 675.042C569.775 667.775 584.895 657.576 597.985 644.485L581.015 627.515ZM543.301 652.958C529.118 658.994 514.383 662 499 662V686C517.617 686 535.549 682.34 552.699 675.042L543.301 652.958ZM499 662C481.301 662 466.774 659.048 455.046 653.612L444.954 675.388C460.559 682.619 478.699 686 499 686V662ZM455.367 653.767C443.518 647.842 437.267 641.375 434.45 635.091L412.55 644.909C418.4 657.959 429.816 667.824 444.633 675.233L455.367 653.767ZM411.5 640V773.5H435.5V640H411.5ZM423.5 761.5H360V785.5H423.5V761.5ZM372 773.5V409.5H348V773.5H372ZM360 421.5H421.5V397.5H360V421.5ZM409.5 409.5V436.5H433.5V409.5H409.5ZM432.45 441.409C435.186 435.306 441.409 429.012 453.546 423.388L443.454 401.612C428.258 408.655 416.481 418.36 410.55 431.591L432.45 441.409ZM453.659 423.334C465.726 417.588 480.391 414.5 498 414.5V390.5C477.609 390.5 459.274 394.078 443.341 401.666L453.659 423.334ZM498 414.5C513.749 414.5 528.648 417.519 542.801 423.542L552.199 401.458C535.019 394.148 516.918 390.5 498 390.5V414.5ZM543.083 423.658C557.581 429.396 570.191 437.661 581.015 448.485L597.985 431.515C584.809 418.339 569.419 408.27 551.917 401.342L543.083 423.658ZM581.015 448.485C591.844 459.315 600.499 472.32 606.936 487.647L629.064 478.353C621.501 460.347 611.156 444.685 597.985 431.515L581.015 448.485ZM570.552 570.676C574.883 560.438 577 549.504 577 538H553C553 546.496 551.451 554.228 548.448 561.324L570.552 570.676ZM577 538C577 526.501 574.884 515.668 570.484 505.667L548.516 515.333C551.449 521.999 553 529.499 553 538H577ZM570.484 505.667C566.143 495.802 559.978 487.235 552.028 480.08L535.972 497.92C541.356 502.765 545.524 508.532 548.516 515.333L570.484 505.667ZM552.253 480.289C544.555 472.996 535.226 467.517 524.536 463.699L516.464 486.301C524.44 489.15 530.778 493.004 535.747 497.711L552.253 480.289ZM524.668 463.747C514.154 459.853 502.717 458 490.5 458V482C500.283 482 508.846 483.48 516.332 486.253L524.668 463.747ZM490.5 458C472.792 458 456.614 461.703 442.294 469.444L453.706 490.556C464.053 484.964 476.208 482 490.5 482V458ZM442.518 469.325C428.486 476.531 417.811 486.364 412.412 499.412L434.588 508.588C437.189 502.303 442.847 496.136 453.482 490.675L442.518 469.325ZM411.5 504V572.5H435.5V504H411.5ZM412.412 577.088C417.777 590.054 428.36 600.025 442.294 607.556L453.706 586.444C442.973 580.642 437.223 574.279 434.588 567.912L412.412 577.088ZM442.518 607.675C456.792 615.004 472.888 618.5 490.5 618.5V594.5C476.112 594.5 463.875 591.662 453.482 586.325L442.518 607.675ZM490.5 618.5C502.717 618.5 514.154 616.647 524.668 612.753L516.332 590.247C508.846 593.02 500.283 594.5 490.5 594.5V618.5ZM524.536 612.801C535.226 608.983 544.555 603.504 552.253 596.211L535.747 578.789C530.778 583.496 524.44 587.35 516.464 590.199L524.536 612.801ZM552.028 596.42C559.978 589.265 566.143 580.698 570.484 570.833L548.516 561.167C545.524 567.968 541.356 573.735 535.972 578.58L552.028 596.42Z" fill="white"/>
</g>
<defs>
<clipPath id="clip0_675_457">
<rect width="1440" height="1193" fill="white"/>
</clipPath>
</defs>
</svg>
