<svg width="1440" height="1074" viewBox="0 0 1440 1074" fill="none" xmlns="http://www.w3.org/2000/svg">
<g clip-path="url(#clip0_707_444)">
<path d="M840 0.5V645.5H1019V0.5" stroke="#FF007A" stroke-width="3"/>
<path d="M461 0V537.5H620V0.5" stroke="#FF007A" stroke-width="3"/>
<g clip-path="url(#clip1_707_444)">
<rect width="370" height="263" transform="translate(798 883.5) rotate(-90)" fill="white"/>
<path d="M837.38 866.224C837.38 870.905 838.073 875.153 839.458 878.968C840.844 882.782 842.748 886.25 845.173 889.371C847.424 892.492 850.021 895.266 852.965 897.693C855.909 900.121 858.939 902.202 862.056 903.935L837.64 918.5C832.618 917.113 827.856 914.859 823.354 911.738C818.852 908.444 814.956 904.456 811.666 899.774C808.202 894.919 805.518 889.458 803.614 883.389C801.536 877.32 800.497 870.732 800.497 863.623C800.497 854.433 801.968 846.284 804.912 839.175C807.856 832.066 811.925 826.084 817.12 821.23C822.142 816.375 828.029 812.734 834.783 810.306C841.536 807.705 848.722 806.405 856.342 806.405C863.095 806.405 869.329 807.185 875.043 808.746C880.758 810.306 886.385 812.647 891.927 815.768C897.468 818.715 903.096 822.443 908.81 826.951C914.351 831.459 920.498 836.661 927.252 842.556L953.746 865.443V801.984H990.629L1108.7 832.672L990.629 917.72H961.538L903.615 865.443C899.286 861.629 895.303 858.248 891.667 855.3C888.03 852.179 884.567 849.578 881.277 847.498C877.814 845.417 874.437 843.857 871.147 842.816C867.857 841.776 864.394 841.256 860.757 841.256C854.523 841.256 849.069 843.597 844.393 848.278C839.718 852.786 837.38 858.768 837.38 866.224Z" fill="#FF007A"/>
<path d="M793.974 774.921C793.974 764.488 796.259 755.063 800.828 746.644C805.398 738.042 812.07 730.813 820.843 724.956C829.617 718.916 840.401 714.341 853.196 711.23C865.991 707.935 880.522 706.288 896.79 706.288C912.509 706.288 926.675 707.844 939.287 710.955C951.899 713.883 962.592 718.276 971.365 724.132C980.139 729.806 986.902 736.944 991.654 745.546C996.224 753.965 998.508 763.573 998.508 774.372C998.508 785.719 996.132 795.693 991.38 804.295C986.445 812.897 979.59 820.127 970.817 825.983C961.86 831.657 951.076 836.049 938.464 839.161C925.852 842.089 911.686 843.553 895.967 843.553C880.065 843.553 865.808 841.998 853.196 838.886C840.584 835.775 829.891 831.291 821.117 825.434C812.344 819.578 805.672 812.44 801.103 804.021C796.35 795.419 793.974 785.719 793.974 774.921ZM832.907 774.921C832.907 779.313 834.186 783.431 836.745 787.274C839.122 791.118 842.96 794.504 848.261 797.432C853.379 800.36 859.959 802.648 868.001 804.295C876.044 805.943 885.64 806.766 896.79 806.766C907.757 806.766 917.261 805.943 925.304 804.295C933.163 802.465 939.652 800.086 944.77 797.158C949.888 794.229 953.635 790.843 956.011 787C958.387 783.157 959.576 779.039 959.576 774.646C959.576 765.861 954.366 758.449 943.948 752.409C933.346 746.186 917.535 743.075 896.515 743.075C876.409 743.075 860.781 746.095 849.632 752.135C838.482 757.991 832.907 765.587 832.907 774.921Z" fill="white"/>
<path d="M789.934 719.668C789.934 710.883 790.939 702.647 792.95 694.96C794.777 687.273 797.336 680.318 800.626 674.096C803.734 667.69 807.389 662.199 811.593 657.624C815.797 652.865 820.276 649.113 825.028 646.368L856.832 657.624C853.359 660.369 849.978 663.755 846.688 667.781C843.215 671.625 840.199 676.109 837.64 681.233C834.898 686.358 832.796 691.94 831.334 697.98C829.689 703.836 828.866 710.151 828.866 716.922C828.866 726.806 830.42 735.865 833.527 744.101C836.452 752.337 840.656 759.383 846.139 765.24C851.623 770.913 858.295 775.397 866.154 778.692C874.014 781.803 882.696 783.359 892.201 783.359C902.071 783.359 910.936 781.712 918.796 778.417C926.655 775.123 933.327 770.547 938.81 764.691C944.294 758.651 948.498 751.513 951.423 743.277C954.164 734.858 955.535 725.616 955.535 715.55C955.535 706.948 954.347 699.261 951.971 692.489C949.412 685.534 945.939 679.495 941.552 674.37H921.537V716.922H883.976V639.23H953.342C958.825 642.708 964.035 646.917 968.97 651.859C973.905 656.8 978.292 662.657 982.13 669.429C985.969 676.017 988.984 683.521 991.178 691.94C993.371 700.176 994.468 709.327 994.468 719.393C994.468 732.571 992 745.291 987.065 757.553C982.13 769.632 975.184 780.339 966.228 789.673C957.272 799.007 946.579 806.419 934.15 811.91C921.537 817.401 907.646 820.146 892.475 820.146C877.304 820.146 863.412 817.401 850.8 811.91C838.188 806.419 827.404 799.007 818.448 789.673C809.309 780.339 802.272 769.632 797.336 757.553C792.401 745.474 789.934 732.845 789.934 719.668Z" fill="#FF007A"/>
<path d="M807.337 674.934V566.22H846.269V638.97H883.557V574.456H922.49V638.97H965.261V566.22H1004.19V674.934H807.337Z" fill="white"/>
<path d="M788 679.268V620.793C788 613.473 789.188 606.243 791.564 599.106C793.758 591.968 797.231 585.654 801.983 580.163C806.735 574.489 812.767 570.005 820.078 566.711C827.207 563.234 835.706 561.495 845.577 561.495C858.371 561.495 869.521 564.698 879.026 571.103C888.531 577.326 895.294 586.294 899.315 598.007L984.857 552.71V592.791L903.153 636.167V643.305H984.857V679.268H788ZM826.659 643.305H866.962V617.774C866.962 611.917 865.134 607.067 861.479 603.224C857.823 599.38 852.979 597.458 846.948 597.458C841.098 597.458 836.255 599.38 832.416 603.224C828.578 606.884 826.659 611.734 826.659 617.774V643.305Z" fill="#FF007A"/>
<path d="M941.163 493.325C934.582 499.181 929.373 506.228 925.535 514.463C921.696 522.516 919.777 530.386 919.777 538.073C919.777 540.269 919.96 542.466 920.325 544.662C920.691 546.675 921.331 548.597 922.245 550.427C922.976 552.257 924.164 553.721 925.809 554.819C927.271 555.918 929.099 556.467 931.292 556.467C934.4 556.467 937.416 555.002 940.34 552.074C943.265 549.146 945.915 546.218 948.291 543.289C954.506 535.602 959.989 528.831 964.742 522.974C969.311 516.934 973.972 511.261 978.725 505.953C982.015 502.11 985.487 498.541 989.143 495.246C992.616 491.952 996.454 489.115 1000.66 486.736C1004.68 484.174 1009.16 482.16 1014.09 480.696C1018.85 479.232 1024.05 478.5 1029.72 478.5C1038.13 478.5 1045.81 479.964 1052.75 482.892C1059.51 485.821 1065.36 489.939 1070.3 495.246C1075.05 500.554 1078.8 506.868 1081.54 514.189C1084.1 521.51 1085.38 529.563 1085.38 538.348C1085.38 545.851 1084.37 552.989 1082.36 559.761C1080.35 566.35 1077.79 572.389 1074.69 577.88C1071.4 583.188 1067.74 587.763 1063.72 591.607C1059.7 595.267 1018.11 742.454 1014.09 744.101L1017.66 588.861C1021.86 585.933 1025.7 582.456 1029.17 578.429C1032.65 574.403 1035.66 570.102 1038.22 565.526C1040.78 560.768 1042.79 555.918 1044.25 550.976C1045.71 546.034 1046.45 541.184 1046.45 536.426C1046.45 530.386 1045.17 525.353 1042.61 521.327C1039.87 517.117 1035.75 515.013 1030.27 515.013C1026.07 515.013 1022.32 516.294 1019.03 518.856C1015.74 521.235 1012.17 524.713 1008.34 529.288C1000.66 538.622 993.896 547.041 988.046 554.545C982.015 561.866 976.074 568.271 970.225 573.762C964.924 578.704 959.075 583.188 952.678 587.214C946.098 591.057 938.421 592.979 929.647 592.979C921.788 592.979 914.842 591.515 908.81 588.587C902.778 585.658 897.752 581.723 893.73 576.782C889.526 571.84 886.328 566.075 884.134 559.486C881.941 552.898 880.844 545.851 880.844 538.348C880.844 532.308 881.667 526.634 883.312 521.327C884.774 515.836 886.785 510.895 889.344 506.502C891.72 501.927 894.462 497.9 897.569 494.423C900.676 490.945 903.875 488.2 907.165 486.187L941.163 493.325Z" fill="#FF007A"/>
<path d="M1049.2 542.885C1040.79 542.885 1033.03 544.349 1025.9 547.277C1018.59 550.205 1012.28 554.323 1006.98 559.631C1001.68 564.939 997.474 571.253 994.367 578.574C991.26 585.894 989.706 593.947 989.706 602.732V638.97H1108.7V602.732C1108.7 594.313 1107.33 586.443 1104.59 579.123C1101.66 571.802 1097.64 565.488 1092.52 560.18C1087.22 554.872 1080.91 550.663 1073.6 547.552C1066.29 544.44 1058.16 542.885 1049.2 542.885ZM950.773 613.164C950.773 597.608 952.967 583.332 957.353 570.338C961.74 557.16 968.138 545.813 976.546 536.296C984.771 526.779 995.007 519.367 1007.25 514.059C1019.5 508.751 1033.48 506.098 1049.2 506.098C1064.74 506.098 1078.63 508.843 1090.88 514.333C1102.94 519.641 1113.18 527.145 1121.58 536.845C1129.99 546.362 1136.48 557.618 1141.05 570.612C1145.44 583.607 1141.05 597.791 1141.05 613.164V679.268L950.773 674.934V613.164Z" fill="white"/>
</g>
<g clip-path="url(#clip2_707_444)">
<rect width="322" height="447" transform="translate(383 240.5)" fill="#363EFF"/>
<path d="M632.068 462.766C630.701 467.378 627.923 471.708 623.735 475.755C619.289 479.798 613.078 481.75 605.103 481.611C597.127 481.472 590.488 478.523 585.184 472.765C579.88 467.006 577.3 460.008 577.444 451.769C577.587 443.53 580.537 436.757 586.291 431.449C592.05 425.884 599.046 423.173 607.279 423.317C613.968 423.434 619.991 424.826 625.349 427.495C630.711 429.907 636.067 432.704 641.416 435.888L682.676 460.559L682.211 487.206L632.068 462.766ZM633.463 382.826C632.096 387.437 629.318 391.767 625.13 395.815C620.684 399.858 614.474 401.809 606.498 401.67C598.523 401.531 591.883 398.582 586.579 392.824C581.275 387.065 578.695 380.067 578.839 371.828C578.983 363.59 581.932 356.816 587.686 351.509C593.445 345.943 600.441 343.232 608.674 343.376C615.363 343.493 621.387 344.886 626.744 347.555C632.107 349.966 637.462 352.764 642.811 355.947L684.072 380.619L683.607 407.266L633.463 382.826Z" fill="white"/>
<path d="M533.433 597.431C534.801 592.819 537.707 588.491 542.153 584.448C546.341 580.401 552.423 578.447 560.398 578.586C568.374 578.725 575.014 581.674 580.318 587.432C585.621 593.191 588.201 600.189 588.058 608.428C587.914 616.667 584.963 623.569 579.204 629.134C573.449 634.442 566.456 637.024 558.223 636.88C551.534 636.763 545.508 635.499 540.146 633.088C534.788 630.419 529.434 627.493 524.086 624.309L482.825 599.638L483.29 572.991L533.433 597.431ZM534.829 517.49C536.196 512.878 539.102 508.551 543.548 504.508C547.736 500.46 553.818 498.506 561.794 498.645C569.769 498.785 576.409 501.733 581.713 507.492C587.017 513.25 589.597 520.249 589.453 528.487C589.309 536.726 586.358 543.628 580.599 549.193C574.845 554.501 567.851 557.083 559.618 556.939C552.929 556.823 546.903 555.559 541.541 553.147C536.183 550.478 530.83 547.552 525.481 544.368L484.22 519.697L484.685 493.05L534.829 517.49Z" fill="white"/>
<path d="M417.766 697.599L421.203 500.644L463.654 501.385L460.216 698.34L417.766 697.599Z" fill="white"/>
<path d="M334.524 218.084C334.781 203.409 338.228 190.206 344.867 178.475C351.51 166.487 361.078 156.481 373.571 148.458C386.068 140.178 401.36 134.006 419.445 129.944C437.536 125.624 458.029 123.664 480.927 124.063C503.052 124.45 522.953 126.986 540.629 131.673C558.309 136.102 573.251 142.544 585.457 150.998C597.667 159.195 607.011 169.402 613.489 181.619C619.714 193.574 622.694 207.147 622.429 222.337C622.15 238.299 618.56 252.272 611.66 264.256C604.502 276.235 594.677 286.237 582.184 294.26C569.438 302.021 554.151 307.935 536.323 312.002C518.499 315.811 498.524 317.523 476.399 317.137C454.016 316.746 433.986 314.207 416.311 309.521C398.635 304.834 383.695 298.264 371.489 289.809C359.284 281.355 350.069 271.15 343.844 259.195C337.366 246.978 334.259 233.274 334.524 218.084ZM389.324 219.041C389.216 225.22 390.916 231.044 394.423 236.513C397.674 241.978 402.993 246.836 410.382 251.085C417.514 255.33 426.72 258.71 438 261.225C449.279 263.74 462.766 265.134 478.46 265.408C493.896 265.677 507.295 264.752 518.655 262.633C529.763 260.251 538.955 257.064 546.23 253.07C553.506 249.077 558.863 244.406 562.302 239.057C565.741 233.709 567.514 227.946 567.622 221.767C567.838 209.409 560.688 198.854 546.171 190.101C531.402 181.087 509.224 176.322 479.638 175.806C451.337 175.312 429.266 179.176 413.424 187.398C397.587 195.363 389.553 205.91 389.324 219.041Z" fill="white"/>
<path d="M633.696 292.699L637.133 95.7433L679.584 96.4843L676.146 293.44L633.696 292.699Z" fill="white"/>
<path d="M603.621 758.586L607.059 561.63L649.509 562.371L646.071 759.327L603.621 758.586Z" fill="white"/>
<path d="M554.421 363.493L536.856 378.069C542.923 384.356 547.836 391.517 551.597 399.553C555.195 407.586 556.905 416.724 556.726 426.969C556.59 434.774 555.248 441.826 552.7 448.125C549.992 454.258 546.406 459.482 541.942 463.796C537.481 467.947 532.306 471.11 526.417 473.284C520.528 475.458 514.333 476.489 507.834 476.375C502.309 476.279 497.205 475.377 492.521 473.668C487.677 471.795 483.25 469.359 479.239 466.361C475.228 463.363 471.55 459.883 468.206 455.921C464.862 451.959 461.764 447.839 458.913 443.56L458.439 442.82C451.016 449.034 444.27 453.714 438.201 456.861C432.132 460.008 425.523 461.52 418.374 461.395C412.524 461.293 406.938 460.057 401.616 457.687C396.293 455.317 391.635 452.145 387.641 448.171C383.649 444.035 380.566 439.102 378.391 433.371C376.053 427.637 374.943 421.356 375.062 414.526C375.187 407.372 376.437 400.969 378.811 395.317C381.185 389.666 384.437 384.924 388.568 381.092C392.538 377.095 397.223 374.087 402.622 372.066C408.021 370.046 413.808 369.09 419.983 369.198C428.432 369.345 436.423 372.494 443.955 378.644C451.325 384.79 458.261 392.475 464.764 401.697L491.227 380.201C486.563 377.354 481.49 374.663 476.008 372.128C470.528 369.429 464.721 366.888 458.587 364.504L490.031 350.902C494.233 352.276 498.351 353.812 502.385 355.509C506.419 357.206 510.367 359.146 514.23 361.328L555.038 328.126L554.421 363.493ZM522.659 423.202C522.741 418.487 522.007 414.001 520.456 409.745C518.742 405.486 516.293 401.458 513.108 397.661L480.454 424.661C483.944 429.602 487.606 433.976 491.441 437.784C495.113 441.589 499.711 443.54 505.235 443.636C509.948 443.719 514.04 442.082 517.512 438.727C520.824 435.207 522.54 430.032 522.659 423.202ZM421.347 430.705C424.922 430.767 428.105 430.01 430.896 428.432C433.689 426.691 436.404 424.787 439.041 422.718L442.996 419.616L441.811 417.643C438.801 413.199 435.621 409.158 432.271 405.522C428.921 401.885 425.377 400.034 421.64 399.968C417.09 399.889 413.732 401.376 411.566 404.428C409.24 407.315 408.04 410.873 407.966 415.101C407.887 419.654 409.122 423.416 411.67 426.388C414.222 429.198 417.448 430.637 421.347 430.705Z" fill="white"/>
</g>
<g clip-path="url(#clip3_707_444)">
<rect width="263" height="363" transform="translate(798 73.5)" fill="white"/>
<path d="M1063.94 403.973L865.409 302.748L903.519 243.845L1088.87 365.432L1063.94 403.973ZM1142.61 452.136C1132.7 454.389 1123.4 452.99 1114.7 447.939C1106 442.889 1100.46 435.673 1098.08 426.29C1095.7 416.907 1097.18 408.095 1102.51 399.854C1107.84 391.612 1115.46 386.365 1125.37 384.113C1135.27 381.86 1144.58 383.259 1153.28 388.31C1161.98 393.36 1167.52 400.576 1169.9 409.959C1172.28 419.342 1170.8 428.154 1165.47 436.395C1160.14 444.637 1152.52 449.884 1142.61 452.136Z" fill="#00FF57"/>
<path d="M788.068 147.23H952.081V180.736H788.068V147.23Z" fill="#00FF57"/>
<path d="M910.274 35.7471C919.922 30.8736 930.642 28.4368 942.433 28.4368C954.225 28.4368 964.838 30.8736 974.271 35.7471C983.919 40.6207 992.066 47.8295 998.713 57.3736C1005.36 66.9176 1010.5 78.6954 1014.15 92.7069C1017.79 106.718 1019.62 122.862 1019.62 141.138C1019.62 159.414 1017.79 175.557 1014.15 189.569C1010.5 203.58 1005.36 215.358 998.713 224.902C992.066 234.446 983.919 241.655 974.271 246.529C964.838 251.402 954.225 253.839 942.433 253.839C930.642 253.839 919.922 251.402 910.274 246.529C900.84 241.655 892.801 234.446 886.154 224.902C879.508 215.358 874.362 203.58 870.718 189.569C867.073 175.557 865.251 159.414 865.251 141.138C865.251 122.862 867.073 106.718 870.718 92.7069C874.362 78.6954 879.508 66.9176 886.154 57.3736C892.801 47.8295 900.84 40.6207 910.274 35.7471ZM963.337 59.8103C956.905 55.9521 949.937 54.023 942.433 54.023C934.93 54.023 927.962 55.9521 921.53 59.8103C915.098 63.6686 909.524 69.3544 904.807 76.8678C900.304 84.1782 896.767 93.2146 894.194 103.977C891.621 114.739 890.335 127.126 890.335 141.138C890.335 155.149 891.621 167.536 894.194 178.299C896.767 189.061 900.304 198.199 904.807 205.713C909.524 213.023 915.098 218.607 921.53 222.466C927.962 226.324 934.93 228.253 942.433 228.253C949.937 228.253 956.905 226.324 963.337 222.466C969.769 218.607 975.236 213.023 979.738 205.713C984.455 198.199 988.1 189.061 990.673 178.299C993.245 167.536 994.532 155.149 994.532 141.138C994.532 127.126 993.245 114.739 990.673 103.977C988.1 93.2146 984.455 84.1782 979.738 76.8678C975.236 69.3544 969.769 63.6686 963.337 59.8103Z" fill="#00FF57"/>
<path d="M1053.71 246.833H1013.44V236.721H1065.15V245.249L1030.16 324.201H1019.49L1053.71 246.833Z" fill="#00FF57"/>
<path d="M854.638 476.5H830.84V254.753H854.638V344.914C856.782 339.025 861.82 333.948 869.753 329.684C877.686 325.42 887.655 323.287 899.661 323.287C908.023 323.287 916.17 324.607 924.103 327.247C932.25 329.887 939.539 334.05 945.971 339.736C952.403 345.218 957.548 352.224 961.408 360.753C965.481 369.282 967.518 379.435 967.518 391.213V476.5H943.72V392.126C943.72 377.709 939.539 366.743 931.178 359.23C923.031 351.513 912.632 347.655 899.983 347.655C894.623 347.655 889.37 348.467 884.225 350.092C879.294 351.513 874.684 353.646 870.396 356.489C866.323 359.128 862.892 362.276 860.105 365.931C857.318 369.586 855.496 373.648 854.638 378.115V476.5Z" fill="#00FF57"/>
<path d="M854.316 309.276V334.557H726.643V312.931L786.781 245.006C797.501 232.822 806.184 221.247 812.831 210.282C819.477 199.316 822.8 187.944 822.8 176.167C822.8 170.887 821.943 165.912 820.227 161.241C818.512 156.571 816.047 152.51 812.831 149.057C809.615 145.605 805.648 142.966 800.932 141.138C796.429 139.107 791.284 138.092 785.495 138.092C779.063 138.092 773.274 139.006 768.129 140.833C763.198 142.458 758.695 144.692 754.622 147.534C750.763 150.377 747.44 153.525 744.653 156.977C741.865 160.429 739.507 163.78 737.577 167.029L726 148.753C727.715 143.879 730.395 139.31 734.04 135.046C737.685 130.579 742.08 126.72 747.225 123.471C752.371 120.019 758.16 117.379 764.591 115.552C771.023 113.521 777.991 112.506 785.495 112.506C795.357 112.506 804.148 114.13 811.866 117.379C819.584 120.628 826.123 125.096 831.483 130.782C836.843 136.264 840.809 142.762 843.382 150.276C846.169 157.586 847.563 165.303 847.563 173.425C847.563 181.345 846.598 188.858 844.669 195.966C842.739 202.87 839.845 209.875 835.985 216.983C832.341 223.887 827.731 230.994 822.157 238.305C816.583 245.412 810.258 253.027 803.183 261.149L760.732 309.276H854.316Z" fill="#00FF57"/>
<path d="M1034.09 -0.5H1057.89V221.247H1034.09V-0.5Z" fill="#00FF57"/>
</g>
</g>
<defs>
<clipPath id="clip0_707_444">
<rect width="1440" height="1074" fill="white"/>
</clipPath>
<clipPath id="clip1_707_444">
<rect width="370" height="263" fill="white" transform="translate(798 883.5) rotate(-90)"/>
</clipPath>
<clipPath id="clip2_707_444">
<rect width="322" height="447" fill="white" transform="translate(383 240.5)"/>
</clipPath>
<clipPath id="clip3_707_444">
<rect width="263" height="363" fill="white" transform="translate(798 73.5)"/>
</clipPath>
</defs>
</svg>
